<?xml version="1.0" encoding="UTF-8" standalone="no"?>
<svg
   xmlns:dc="http://purl.org/dc/elements/1.1/"
   xmlns:cc="http://creativecommons.org/ns#"
   xmlns:rdf="http://www.w3.org/1999/02/22-rdf-syntax-ns#"
   xmlns:svg="http://www.w3.org/2000/svg"
   xmlns="http://www.w3.org/2000/svg"
   xmlns:sodipodi="http://sodipodi.sourceforge.net/DTD/sodipodi-0.dtd"
   xmlns:inkscape="http://www.inkscape.org/namespaces/inkscape"
   id="Layer_1"
   viewBox="0 0 466.08956 439.02815"
   width="2532.5449"
   height="2385.1919"
   version="1.1"
   sodipodi:docname="zalo.svg"
   inkscape:version="0.92.5 (0.92.5+68)">
  <metadata
     id="metadata25">
    <rdf:RDF>
      <cc:Work
         rdf:about="">
        <dc:format>image/svg+xml</dc:format>
        <dc:type
           rdf:resource="http://purl.org/dc/dcmitype/StillImage" />
        <dc:title>logo-zalo-vector</dc:title>
      </cc:Work>
    </rdf:RDF>
  </metadata>
  <defs
     id="defs23">
    <inkscape:path-effect
       effect="bspline"
       id="path-effect4798"
       is_visible="true"
       weight="33.333333"
       steps="2"
       helper_size="0"
       apply_no_weight="true"
       apply_with_weight="true"
       only_selected="false" />
    <inkscape:path-effect
       effect="bspline"
       id="path-effect4792"
       is_visible="true"
       weight="33.333333"
       steps="2"
       helper_size="0"
       apply_no_weight="true"
       apply_with_weight="true"
       only_selected="false" />
  </defs>
  <sodipodi:namedview
     pagecolor="#ffffff"
     bordercolor="#666666"
     borderopacity="1"
     objecttolerance="10"
     gridtolerance="10"
     guidetolerance="10"
     inkscape:pageopacity="0"
     inkscape:pageshadow="2"
     inkscape:window-width="1366"
     inkscape:window-height="694"
     id="namedview21"
     showgrid="false"
     fit-margin-top="0"
     fit-margin-left="0"
     fit-margin-right="0"
     fit-margin-bottom="0"
     inkscape:zoom="0.2814118"
     inkscape:cx="1665.7368"
     inkscape:cy="1573.9802"
     inkscape:window-x="0"
     inkscape:window-y="21"
     inkscape:window-maximized="1"
     inkscape:current-layer="Layer_1"
     inkscape:object-paths="false" />
  <style
     id="style2">.st0{fill:#fdfefe}.st1{fill:#0180c7}.st2{fill:#0172b1}.st3{fill:none;stroke:#0180c7;stroke-width:2;stroke-miterlimit:10}</style>
  <title
     id="title4">logo-zalo-vector</title>
  <path
     style="opacity:1;fill:#111111;fill-opacity:1;fill-rule:nonzero;stroke:none;stroke-width:0.0456398;stroke-linecap:butt;stroke-linejoin:round;stroke-miterlimit:4;stroke-dasharray:none;stroke-dashoffset:0;stroke-opacity:0.61568627;paint-order:fill markers stroke"
     d="m 458.73235,346.26384 c -5.97009,-0.81451 -6.16613,-1.19008 -2.09636,-4.01417 5.70612,-3.95971 4.83349,-303.436919 -0.90217,-309.575933 -6.59874,-7.06283 -26.45008,-15.334225 -51.04305,-21.267946 -8.46823,-2.0431545 -7.41876,-2.7930865 2.79816,-1.9998055 7.9535,0.6175335 31.74695,7.3870465 43.47872,12.3701885 21.07167,8.950391 19.86393,-1.332302 19.58363,166.732536 -0.14135,85.08634 -1.37731,155.59149 -2.74543,156.67807 -2.43836,1.93666 -2.61728,1.95787 -9.0735,1.07706 z"
     id="path7674"
     inkscape:connector-curvature="0" />
  <path
     style="opacity:1;fill:#d300dc;fill-opacity:1;fill-rule:nonzero;stroke:#d300db;stroke-width:0.50867718;stroke-linecap:butt;stroke-linejoin:round;stroke-miterlimit:4;stroke-dasharray:none;stroke-dashoffset:0;stroke-opacity:0.61568627;paint-order:fill markers stroke"
     d=""
     id="path7676"
     inkscape:connector-curvature="0" />
  <path
     style="opacity:1;fill:#000000;fill-opacity:1;fill-rule:nonzero;stroke:none;stroke-width:0.18413812;stroke-linecap:butt;stroke-linejoin:round;stroke-miterlimit:4;stroke-dasharray:none;stroke-dashoffset:0;stroke-opacity:0.61568627;paint-order:fill markers stroke"
     d="M 71.944616,49.668726 71.944574,0 H 196.46386 c 105.67646,0 124.5193,0.0357455 124.5193,0.23622074 0,0.31315226 3.37737,0.27464451 -108.57624,1.23795106 l -53.22526,0.4579773 -4.82379,3.0022626 C 148.72139,8.4424782 143.9976,11.735588 139.12676,15.552521 125.40388,26.306172 111.00191,39.755139 103.92392,48.425936 91.883971,63.175304 81.581354,79.264459 73.807021,95.458199 l -1.862363,3.879254 z"
     id="path8487"
     inkscape:connector-curvature="0" />
  <path
     style="opacity:1;fill:#000000;fill-opacity:1;fill-rule:nonzero;stroke:none;stroke-width:0.17984454;stroke-linecap:butt;stroke-linejoin:round;stroke-miterlimit:4;stroke-dasharray:none;stroke-dashoffset:0;stroke-opacity:0.61568627;paint-order:fill markers stroke"
     d=""
     id="path8491"
     inkscape:connector-curvature="0" />
  <path
     style="opacity:1;fill:#000000;fill-opacity:1;fill-rule:nonzero;stroke:none;stroke-width:0.72654539;stroke-linecap:butt;stroke-linejoin:round;stroke-miterlimit:4;stroke-dasharray:none;stroke-dashoffset:0;stroke-opacity:0.61568627;paint-order:fill markers stroke"
     d="M 72.274754,438.18184 C 50.040014,437.72315 46.700978,437.36501 37.951065,434.50035 27.295229,431.01172 17.504559,423.43024 11.050114,413.66943 9.7656521,411.72699 6.7466403,406.20169 4.3411983,401.39098 l -4.373528,-8.74672 V 219.77741 46.910528 l 4.263652,-8.378509 C 12.91446,21.468767 23.373498,11.66577 41.153213,3.9260443 L 49.162894,0.4393309 60.553744,0.2196655 71.944574,0 v 48.170108 48.170125 l -2.65121,6.117347 c -11.37477,26.24584 -15.8921,50.72624 -14.94886,81.01129 0.53232,17.09168 1.85003,28.15072 4.7413,39.7921 8.57861,34.54082 21.81803,58.21879 51.818756,92.67488 10.3148,11.84662 10.72143,12.54569 10.34612,17.78629 -0.48646,6.79257 -4.27589,13.63101 -12.16176,21.94724 -6.24122,6.58183 -17.004316,15.97012 -26.079076,22.7479 -2.4332,1.81732 -4.35824,3.60161 -4.27785,3.96506 0.0804,0.36346 9.8036,10.00353 21.607156,21.42238 11.80354,11.41883 24.28394,23.51324 27.73421,26.87644 l 6.27323,6.11491 138.34093,-0.52766 138.34094,-0.52767 7.24415,-3.42049 c 20.9831,-9.90757 32.45772,-22.44533 39.0506,-42.66865 2.23141,-6.84473 2.43387,-7.08038 2.27117,-2.64336 -0.36101,9.84679 -9.82624,26.11287 -20.6727,35.52634 -7.44455,6.461 -15.20303,10.92862 -22.10135,12.72676 -2.08568,0.54367 -8.40222,1.29477 -14.03675,1.66914 -20.83905,1.38453 -277.03504,2.35452 -330.508826,1.25136 z"
     id="path8495"
     inkscape:connector-curvature="0" />
  <path
     style="opacity:1;fill:#000000;fill-opacity:1;fill-rule:nonzero;stroke:#080009;stroke-width:0.71937817;stroke-linecap:butt;stroke-linejoin:round;stroke-miterlimit:4;stroke-dasharray:none;stroke-dashoffset:0;stroke-opacity:0.61568627;paint-order:fill markers stroke"
     d="m 136.92838,236.72017 c -10.55439,-0.9528 -10.8231,-1.00974 -12.8609,-2.72442 -2.58462,-2.17483 -4.43917,-6.21942 -4.45769,-9.72182 -0.0128,-2.41831 0.69723,-3.68778 6.45944,-11.54912 3.56059,-4.85769 13.07305,-17.32156 21.13881,-27.69748 21.23235,-27.31365 24.89917,-32.34957 24.1212,-33.12754 -0.38462,-0.38461 -7.6225,-0.88334 -17.20535,-1.18554 -18.30886,-0.57738 -23.83234,-1.25511 -27.64109,-3.39157 -2.96039,-1.66058 -5.14427,-4.98327 -5.06678,-7.70887 0.0296,-1.04061 1.03014,-3.5052 2.22345,-5.47686 l 2.16966,-3.58484 30.41443,-9.2e-4 c 30.97475,-9.2e-4 41.05581,0.46566 44.05826,2.03881 2.48192,1.3004 4.99727,5.0494 4.99727,7.44818 0,2.77992 -3.63274,9.77991 -8.80511,16.96672 -2.33016,3.23767 -13.00199,17.01406 -23.7152,30.61421 -10.71321,13.60015 -19.85716,25.26191 -20.31991,25.91506 -0.80152,1.1313 -0.24393,1.20857 11.77333,1.63144 27.28181,0.95996 37.67924,2.15653 40.43864,4.65374 3.01377,2.72745 3.22309,10.64018 0.35278,13.3367 -3.56426,3.34844 -5.6753,3.56052 -36.6797,3.68483 -15.82858,0.0634 -29.95657,0.009 -31.39554,-0.1208 z"
     id="path8497"
     inkscape:connector-curvature="0" />
  <path
     style="opacity:1;fill:#000000;fill-opacity:1;fill-rule:nonzero;stroke:none;stroke-width:0.71937817;stroke-linecap:butt;stroke-linejoin:round;stroke-miterlimit:4;stroke-dasharray:none;stroke-dashoffset:0;stroke-opacity:0.61568627;paint-order:fill markers stroke"
     d="m 239.1419,232.91885 c -6.05639,-1.46754 -11.95583,-4.84503 -16.54732,-9.4735 -8.0074,-8.07191 -11.16986,-16.84866 -11.33123,-31.4474 -0.11082,-10.02597 0.57973,-13.69656 3.89666,-20.71235 2.75139,-5.81958 7.41771,-10.99882 13.68822,-15.19279 11.73539,-7.84911 20.5893,-8.46918 33.66359,-2.35758 3.46241,1.6185 6.92865,2.94273 7.70277,2.94273 0.7741,0 2.40126,-0.87256 3.6159,-1.93903 2.65796,-2.33372 5.00071,-3.29356 8.03881,-3.29356 4.86476,0 9.64371,3.64898 10.82625,8.26642 0.97931,3.82385 1.45328,42.86524 0.66377,54.67534 -0.92038,13.76757 -2.01605,15.95823 -8.73482,17.46393 -3.71546,0.83267 -7.79266,-0.10676 -11.25502,-2.59322 -3.04939,-2.18991 -4.07304,-2.10296 -9.88385,0.83964 -7.32185,3.70779 -16.36179,4.7555 -24.34373,2.82137 z m 17.08452,-20.39478 c 4.28825,-1.46113 10.27166,-7.11448 12.19875,-11.52576 3.18416,-7.28884 1.4152,-18.37142 -3.8679,-24.23227 -6.48186,-7.19071 -16.08685,-7.45167 -23.65993,-0.64282 -5.00347,4.49854 -6.08669,7.09218 -6.08369,14.56658 0.004,10.99032 3.14597,17.62031 9.99516,21.09387 4.05745,2.05775 6.99278,2.24809 11.41761,0.7404 z"
     id="path8499"
     inkscape:connector-curvature="0" />
  <path
     style="opacity:1;fill:#000000;fill-opacity:1;fill-rule:nonzero;stroke:none;stroke-width:0.71937817;stroke-linecap:butt;stroke-linejoin:round;stroke-miterlimit:4;stroke-dasharray:none;stroke-dashoffset:0;stroke-opacity:0.61568627;paint-order:fill markers stroke"
     d="m 310.17545,235.36637 c -4.0017,-0.84745 -4.88051,-2.22431 -5.64298,-8.84106 -0.37612,-3.26399 -0.69267,-24.82809 -0.7325,-49.8981 -0.0906,-57.0658 -0.21096,-56.37632 9.90579,-56.76134 6.61361,-0.25169 7.97546,0.47666 9.53629,5.10025 1.71354,5.07599 2.52911,37.70629 1.86339,74.55368 -0.47577,26.33425 -0.60931,28.64388 -1.79411,31.02727 -2.02106,4.06565 -7.39122,6.03587 -13.13588,4.8193 z"
     id="path8501"
     inkscape:connector-curvature="0" />
  <path
     style="opacity:1;fill:#000000;fill-opacity:1;fill-rule:nonzero;stroke:none;stroke-width:0.71937817;stroke-linecap:butt;stroke-linejoin:round;stroke-miterlimit:4;stroke-dasharray:none;stroke-dashoffset:0;stroke-opacity:0.61568627;paint-order:fill markers stroke"
     d="m 367.48938,233.46756 c -5.64933,-1.10328 -11.08196,-4.40545 -17.0327,-10.35317 -6.36562,-6.36239 -9.82665,-12.22809 -11.11677,-18.84057 -1.21131,-6.20839 -0.50463,-21.60022 1.24142,-27.03971 3.58027,-11.15354 13.14626,-20.70048 24.94584,-24.89618 5.70506,-2.02861 19.71622,-2.19161 25.83591,-0.30056 7.25141,2.24076 12.78966,5.50913 17.71422,10.45396 7.69933,7.73103 11.39206,17.5076 11.39206,30.16068 0,12.57443 -3.93312,22.60644 -12.07369,30.79571 -5.46425,5.49692 -10.77533,8.33999 -18.23477,9.76123 -5.53386,1.05435 -17.87604,1.19514 -22.67152,0.25861 z m 18.72018,-21.65623 c 8.14142,-3.96958 11.12618,-9.76493 10.56407,-20.51153 -0.255,-4.87516 -0.67451,-6.82984 -2.08405,-9.71085 -3.38704,-6.92285 -9.87587,-10.80158 -16.71517,-9.99157 -3.9992,0.47365 -6.5351,1.7602 -10.28791,5.21943 -4.7252,4.35553 -5.70489,6.8585 -5.68606,14.52706 0.0273,11.11723 2.96044,17.02392 10.19609,20.53279 5.45757,2.6466 8.47996,2.6325 14.01303,-0.0653 z"
     id="path8503"
     inkscape:connector-curvature="0" />
  <path
     style="opacity:1;fill:#000000;fill-opacity:1;fill-rule:nonzero;stroke:none;stroke-width:0.81329542;stroke-linecap:butt;stroke-linejoin:round;stroke-miterlimit:4;stroke-dasharray:none;stroke-dashoffset:0;stroke-opacity:0.61568627;paint-order:fill markers stroke"
     d="M 100.9239,409.96186 C 87.0102,394.62838 75.498647,381.64765 75.342689,381.11581 c -0.195658,-0.66726 0.22897,-0.81363 1.369809,-0.47218 0.909352,0.27217 6.490955,0.72388 12.403555,1.00378 18.144097,0.85897 34.271787,-1.88823 65.194757,-11.1054 24.32758,-7.25128 28.50831,-8.05687 35.20037,-6.78288 2.95514,0.56257 8.96215,2.22674 13.34891,3.69818 19.31656,6.47909 34.42597,10.10792 52.71066,12.6595 12.60575,1.7591 45.76713,1.99993 56.87203,0.41302 34.2444,-4.89356 64.30933,-14.9876 91.6979,-30.78683 19.09063,-11.01251 32.4236,-21.09572 49.65517,-37.55235 5.90256,-5.63711 11.6662,-11.11053 12.80811,-12.16314 l 2.07617,-1.91382 -0.3891,34.23855 c -0.41658,36.65715 -0.68294,39.77992 -4.33325,50.80414 -4.11315,12.42204 -10.12631,23.15625 -18.06808,32.25371 -6.65264,7.62076 -11.73245,11.67001 -21.94707,17.4947 l -8.83298,5.03684 -144.44403,-0.0503 -144.44403,-0.0505 z"
     id="path8505"
     inkscape:connector-curvature="0" />
  <path
     style="opacity:1;fill:#000000;fill-opacity:1;fill-rule:nonzero;stroke:none;stroke-width:0.35968909;stroke-linecap:butt;stroke-linejoin:round;stroke-miterlimit:4;stroke-dasharray:none;stroke-dashoffset:0;stroke-opacity:0.61568627;paint-order:fill markers stroke"
     d="m 360.67071,1.861202 c 4.81152,-0.05097 12.68494,-0.05097 17.49646,0 4.81153,0.05097 0.87482,0.092673 -8.74823,0.092673 -9.62307,0 -13.55978,-0.041703 -8.74823,-0.092673 z"
     id="path8515"
     inkscape:connector-curvature="0" />
  <path
     style="opacity:1;fill:#000000;fill-opacity:1;fill-rule:nonzero;stroke:#000000;stroke-width:0.08992227;stroke-linecap:butt;stroke-linejoin:round;stroke-miterlimit:4;stroke-dasharray:none;stroke-dashoffset:0;stroke-opacity:0.61568627;paint-order:fill markers stroke"
     d="m 456.63776,379.04122 c -0.23347,-0.24683 -0.48459,-0.58717 -0.55808,-0.75627 -0.17843,-0.41064 -0.15677,-1.33993 0.0605,-2.59672 0.15404,-0.8909 0.17626,-1.48475 0.24149,-6.45897 0.11125,-8.48175 0.16166,-17.23849 0.21372,-37.11869 0.0264,-10.07275 0.0621,-18.36007 0.0794,-18.41626 0.0213,-0.0691 0.21775,-0.10221 0.60636,-0.10221 h 0.57489 v 14.00127 c 0,19.82476 -0.14423,49.13282 -0.24558,50.18935 -0.0944,0.98365 -0.28088,1.70732 -0.4401,1.70732 -0.0592,0 -0.29862,-0.20197 -0.53207,-0.44882 z"
     id="path8519"
     inkscape:connector-curvature="0" />
  <path
     style="opacity:1;fill:#000000;fill-opacity:1;fill-rule:nonzero;stroke:#000000;stroke-width:0.08992227;stroke-linecap:butt;stroke-linejoin:round;stroke-miterlimit:4;stroke-dasharray:none;stroke-dashoffset:0;stroke-opacity:0.61568627;paint-order:fill markers stroke"
     d="m 456.6987,379.02193 c -0.24764,-0.25968 -0.50222,-0.5641 -0.56572,-0.67653 -0.158,-0.27968 -0.14005,-1.59368 0.0373,-2.73081 0.25127,-1.611 0.35129,-10.83453 0.45613,-42.05715 0.0366,-10.89579 0.0905,-19.83449 0.11981,-19.86381 0.0293,-0.0293 0.29102,-0.0684 0.58159,-0.0869 l 0.5283,-0.0336 -0.002,5.63048 c -0.002,12.50881 -0.17357,52.5396 -0.23881,55.74887 -0.0566,2.78675 -0.0953,3.52634 -0.20539,3.92445 -0.0746,0.2698 -0.16404,0.51904 -0.19879,0.55387 -0.0348,0.0348 -0.26581,-0.14913 -0.51345,-0.40879 z"
     id="path8521"
     inkscape:connector-curvature="0" />
  <path
     style="opacity:1;fill:#000000;fill-opacity:1;fill-rule:nonzero;stroke:#000000;stroke-width:0.08992227;stroke-linecap:butt;stroke-linejoin:round;stroke-miterlimit:4;stroke-dasharray:none;stroke-dashoffset:0;stroke-opacity:0.61568627;paint-order:fill markers stroke"
     d="m 456.10112,372.9493 c 0.10532,-3.85268 0.28298,-34.26292 0.28317,-48.46959 1.1e-4,-8.04548 0.0243,-10.89319 0.0922,-10.87055 0.10921,0.0364 0.10615,6.88148 -0.0145,32.72752 -0.0834,17.86006 -0.18948,26.95174 -0.3218,27.59372 -0.0536,0.26003 -0.065,-0.0277 -0.039,-0.9811 z"
     id="path8523"
     inkscape:connector-curvature="0" />
  <path
     style="opacity:1;fill:#000000;fill-opacity:1;fill-rule:nonzero;stroke:#000000;stroke-width:0.08992227;stroke-linecap:butt;stroke-linejoin:round;stroke-miterlimit:4;stroke-dasharray:none;stroke-dashoffset:0;stroke-opacity:0.61568627;paint-order:fill markers stroke"
     d="m 456.28237,361.78917 c -0.0337,-1.39399 -0.0553,-3.74867 -0.0481,-5.23259 l 0.0131,-2.69805 0.0679,3.88355 c 0.0373,2.13597 0.059,4.49063 0.0481,5.23259 -0.016,1.09603 -0.0312,0.87368 -0.0809,-1.1855 z"
     id="path8527"
     inkscape:connector-curvature="0" />
  <path
     style="opacity:1;fill:#000000;fill-opacity:1;fill-rule:nonzero;stroke:#000000;stroke-width:0.08992227;stroke-linecap:butt;stroke-linejoin:round;stroke-miterlimit:4;stroke-dasharray:none;stroke-dashoffset:0;stroke-opacity:0.61568627;paint-order:fill markers stroke"
     d="m 449.96019,392.69415 c 0.0195,-0.0899 0.22353,-0.64181 0.45328,-1.22638 0.72182,-1.83659 1.37499,-3.83201 2.18114,-6.66338 1.22517,-4.30303 1.68358,-5.5316 2.23809,-5.9982 0.29649,-0.24947 0.43605,-0.27636 0.37599,-0.0724 -0.0232,0.0787 -0.17531,0.62138 -0.33807,1.20595 -0.63488,2.28037 -2.21744,6.7303 -3.41739,9.60916 -0.5427,1.30199 -1.55672,3.4382 -1.49304,3.14528 z"
     id="path8529"
     inkscape:connector-curvature="0" />
  <path
     style="opacity:1;fill:#000000;fill-opacity:1;fill-rule:nonzero;stroke:#000000;stroke-width:0.08992227;stroke-linecap:butt;stroke-linejoin:round;stroke-miterlimit:4;stroke-dasharray:none;stroke-dashoffset:0;stroke-opacity:0.61568627;paint-order:fill markers stroke"
     d="m 450.42304,391.62192 c -0.004,-0.0501 0.13635,-0.47321 0.3116,-0.94023 0.54137,-1.44268 1.12938,-3.27747 1.89663,-5.91818 0.85783,-2.95246 1.3822,-4.54509 1.70701,-5.18462 0.23183,-0.45644 0.69339,-0.97832 0.7846,-0.8871 0.1792,0.17921 -1.7666,5.99902 -3.27274,9.78864 -0.61753,1.55381 -1.41429,3.30769 -1.4271,3.14149 z"
     id="path8531"
     inkscape:connector-curvature="0" />
  <path
     style="opacity:1;fill:#000000;fill-opacity:1;fill-rule:nonzero;stroke:#000000;stroke-width:0.08992227;stroke-linecap:butt;stroke-linejoin:round;stroke-miterlimit:4;stroke-dasharray:none;stroke-dashoffset:0;stroke-opacity:0.61568627;paint-order:fill markers stroke"
     d="m 425.52441,420.05438 c 0.0427,-0.0385 0.64795,-0.49145 1.34494,-1.00658 2.65581,-1.96282 4.45597,-3.53955 7.44889,-6.52435 2.94679,-2.93882 4.4975,-4.68762 6.70838,-7.56542 4.19655,-5.4624 7.73572,-11.74944 10.33255,-18.35494 3.56587,-9.07041 3.99848,-12.13296 4.42037,-31.29335 0.0471,-2.14022 0.0713,-2.47321 0.17937,-2.47321 0.1112,0 0.11872,0.46984 0.0685,4.27193 -0.20804,15.74546 -0.86252,19.97479 -4.59968,29.72434 -3.18943,8.32054 -7.58337,15.53804 -13.64762,22.41759 -1.40645,1.59554 -4.84453,5.01694 -6.45487,6.42354 -2.3287,2.03409 -5.43335,4.44997 -5.71905,4.45026 -0.0944,9e-5 -0.12774,-0.0284 -0.0818,-0.0698 z"
     id="path8533"
     inkscape:connector-curvature="0" />
  <path
     style="opacity:1;fill:#000000;fill-opacity:1;fill-rule:nonzero;stroke:#000000;stroke-width:0.08992227;stroke-linecap:butt;stroke-linejoin:round;stroke-miterlimit:4;stroke-dasharray:none;stroke-dashoffset:0;stroke-opacity:0.61568627;paint-order:fill markers stroke"
     d="m 455.37221,378.19946 c 0.029,-0.1548 0.0998,-0.45203 0.15728,-0.66052 l 0.10448,-0.37904 0.007,0.42392 c 0.004,0.23315 0.0417,0.51446 0.0838,0.62512 0.0693,0.18237 0.0539,0.20453 -0.16459,0.23659 -0.23497,0.0345 -0.23976,0.0282 -0.18829,-0.24607 z"
     id="path8535"
     inkscape:connector-curvature="0" />
  <path
     style="opacity:1;fill:#000000;fill-opacity:1;fill-rule:nonzero;stroke:#000000;stroke-width:0.08992227;stroke-linecap:butt;stroke-linejoin:round;stroke-miterlimit:4;stroke-dasharray:none;stroke-dashoffset:0;stroke-opacity:0.61568627;paint-order:fill markers stroke"
     d="m 425.9332,420.05677 c 0.0427,-0.0372 0.33522,-0.24757 0.64999,-0.46752 0.82494,-0.57646 3.57668,-2.80115 4.86409,-3.93246 1.43495,-1.26097 5.34804,-5.17032 6.53525,-6.52903 5.91387,-6.76811 10.29852,-13.97184 13.42157,-22.05086 2.94793,-7.62603 3.90899,-11.87154 4.36405,-19.27843 0.11511,-1.87379 0.27611,-6.57278 0.31514,-9.19792 0.0107,-0.71947 0.0227,0.7522 0.0267,3.27038 0.004,2.51818 -0.0155,6.23414 -0.0431,8.25767 -0.0477,3.48335 -0.0236,4.62888 0.0867,4.12885 0.0843,-0.38238 -0.0244,0.93657 -0.15164,1.83907 -0.13563,0.96216 -0.11424,2.11183 0.0422,2.26824 0.1336,0.1336 0.11836,0.22972 -0.0275,0.17372 -0.22995,-0.0882 -0.12314,0.10694 0.32336,0.59085 0.30628,0.33194 0.44713,0.43794 0.44967,0.33838 0.004,-0.1347 0.0177,-0.13574 0.20245,-0.0147 0.18915,0.12393 0.20527,0.12032 0.33292,-0.0745 0.35749,-0.54559 0.36708,-0.83326 0.46708,-14.01236 0.0607,-8.00491 0.1238,-12.52959 0.17464,-12.52959 0.0515,0 0.0594,4.26228 0.0224,12.07992 -0.0545,11.50727 -0.0651,12.13614 -0.2227,13.26545 -0.19411,1.3908 -0.28725,1.59322 -0.70216,1.52589 -0.24632,-0.04 -0.2772,-0.0273 -0.22583,0.0928 0.0327,0.0765 0.0765,0.78297 0.0972,1.5699 0.0366,1.38687 0.0296,1.46595 -0.2252,2.57543 -0.14458,0.62953 -0.47509,1.93563 -0.73444,2.90245 -0.25934,0.9668 -0.66484,2.56606 -0.9011,3.55389 -0.78086,3.26491 -1.87248,6.57764 -2.73545,8.3012 -1.85076,3.69639 -4.57519,7.93765 -7.43146,11.56892 -2.09005,2.65713 -3.68321,4.42774 -6.60256,7.3379 l -2.52203,2.5141 -0.75735,-0.002 -0.75737,-0.002 0.32703,-0.29675 c 5.22214,-4.73853 9.24489,-9.33293 12.76749,-14.58187 4.62585,-6.89279 7.38403,-13.36368 8.38007,-19.66021 0.12568,-0.79452 0.17731,-1.58931 0.2045,-3.14774 0.0402,-2.30781 -0.0294,-2.90245 -0.33993,-2.90245 -0.37269,0 -0.91294,1.44643 -2.04604,5.47786 -1.07823,3.83624 -1.92258,6.20141 -3.42952,9.60671 -4.38553,9.91017 -10.79837,17.99907 -19.59669,24.7184 l -1.03505,0.79048 h -0.84108 -0.8411 l 0.36358,-0.2614 c 7.96363,-5.72565 14.02979,-12.42072 18.52841,-20.44932 0.67754,-1.20921 2.31657,-4.47101 2.31517,-4.60738 0,-0.0375 -0.25148,0.39176 -0.55799,0.95385 -5.12972,9.40741 -12.11979,17.58041 -20.50855,23.97921 l -0.50477,0.38504 h -0.79928 c -0.4396,0 -0.76433,-0.0304 -0.72161,-0.0676 z m 25.53681,-30.37985 c 1.13885,-2.69982 2.79669,-7.36093 3.52877,-9.92117 l 0.35651,-1.24683 h 0.27805 c 0.23479,0 0.26802,-0.0222 0.2137,-0.14307 -0.0354,-0.0787 -0.0881,-0.54779 -0.11725,-1.04243 -0.0291,-0.49465 -0.0593,-0.82836 -0.067,-0.74157 -0.008,0.0868 -0.10895,0.55429 -0.22484,1.03891 -0.16297,0.68155 -0.24578,0.89229 -0.36564,0.93031 -0.27818,0.0883 -0.718,0.69974 -1.01685,1.41363 -0.30801,0.73584 -0.79489,2.27763 -1.74778,5.53465 -0.83657,2.85941 -1.81682,5.7339 -2.6348,7.72623 -0.13847,0.33726 -0.26807,0.66839 -0.28799,0.73584 -0.10258,0.34716 1.65345,-3.26098 2.08517,-4.2845 z"
     id="path8537"
     inkscape:connector-curvature="0" />
  <path
     style="opacity:1;fill:#000000;fill-opacity:1;fill-rule:nonzero;stroke:#000000;stroke-width:0.08992227;stroke-linecap:butt;stroke-linejoin:round;stroke-miterlimit:4;stroke-dasharray:none;stroke-dashoffset:0;stroke-opacity:0.61568627;paint-order:fill markers stroke"
     d="m 453.68918,380.73647 c -0.002,-0.0564 0.12391,-0.55312 0.27882,-1.10376 1.20231,-4.27414 1.71973,-8.30516 2.00181,-15.59516 0.048,-1.24037 0.0666,-0.14584 0.0718,4.21059 0.004,3.23767 0.0298,5.99705 0.0578,6.13195 0.028,0.1349 -0.007,0.71117 -0.0773,1.28061 -0.14746,1.19093 -0.16564,2.24854 -0.0441,2.56808 0.0822,0.21629 0.0505,0.36025 -0.0559,0.25382 -0.0294,-0.0295 -0.0969,-0.46791 -0.1498,-0.9743 -0.0529,-0.5064 -0.11765,-0.86553 -0.14386,-0.79807 -0.0262,0.0674 -0.12923,0.46598 -0.22894,0.88561 -0.16148,0.67971 -0.21668,0.79571 -0.50579,1.06287 -0.38843,0.35895 -0.65696,0.79987 -0.96943,1.59181 -0.12772,0.32369 -0.2335,0.54238 -0.23505,0.48595 z"
     id="path8539"
     inkscape:connector-curvature="0" />
  <path
     style="opacity:1;fill:#000000;fill-opacity:1;fill-rule:nonzero;stroke:#000000;stroke-width:0.08992227;stroke-linecap:butt;stroke-linejoin:round;stroke-miterlimit:4;stroke-dasharray:none;stroke-dashoffset:0;stroke-opacity:0.61568627;paint-order:fill markers stroke"
     d="m 441.83465,412.25166 c -0.002,-0.0356 0.37722,-0.53228 0.84235,-1.10374 6.40338,-7.86723 11.36334,-17.56623 12.55784,-24.55632 0.30258,-1.77064 0.44604,-4.91048 0.24816,-5.43098 -0.0809,-0.21285 -0.0894,-0.21548 -0.2435,-0.076 -0.16352,0.14798 -0.54531,1.08531 -1.10908,2.72293 -0.17504,0.50848 -0.33047,0.88792 -0.34536,0.84323 -0.0335,-0.10037 0.61363,-2.30794 1.01188,-3.45203 0.32768,-0.94143 0.5342,-1.38351 0.71733,-1.5355 0.10171,-0.0844 0.14154,-0.0694 0.23082,0.0872 0.14215,0.2493 0.13479,4.19188 -0.01,5.29919 -0.21935,1.67887 -0.73158,3.91662 -1.36384,5.95821 -1.88431,6.08448 -5.81711,13.07239 -10.91112,19.38715 -1.06203,1.31654 -1.62054,1.95442 -1.6256,1.85664 z"
     id="path8541"
     inkscape:connector-curvature="0" />
  <path
     style="opacity:1;fill:#000000;fill-opacity:1;fill-rule:nonzero;stroke:#000000;stroke-width:0.08992227;stroke-linecap:butt;stroke-linejoin:round;stroke-miterlimit:4;stroke-dasharray:none;stroke-dashoffset:0;stroke-opacity:0.61568627;paint-order:fill markers stroke"
     d="m 435.31408,419.20538 c 6.9187,-6.36808 12.57854,-13.72507 16.30709,-21.19687 2.37175,-4.75285 3.95769,-9.79299 4.27063,-13.57204 0.11372,-1.37325 0.0993,-4.26094 -0.023,-4.61841 -0.21585,-0.63077 -0.53698,-0.32211 -1.04046,1.00002 -0.39623,1.04059 -0.41482,0.91136 -0.0421,-0.29318 0.15523,-0.50172 0.35017,-1.15137 0.43322,-1.44367 0.1423,-0.50083 0.16606,-0.5329 0.41272,-0.55705 0.14396,-0.014 0.26173,0.01 0.26173,0.0525 0,0.16615 0.75976,0.92168 0.88032,0.87543 0.0668,-0.0256 0.17272,-0.004 0.23532,0.0478 0.15957,0.13241 0.40198,-0.10146 0.50458,-0.48676 0.0561,-0.21081 0.0823,-0.24442 0.0883,-0.11324 0.005,0.10262 -0.0449,0.31416 -0.11002,0.47012 -0.10442,0.24989 -0.15377,0.28353 -0.41598,0.28353 h -0.29752 l 0.0499,0.3066 c 0.0274,0.16862 0.0539,0.95045 0.0587,1.73738 l 0.009,1.43078 -1.07906,4.25148 c -1.51225,5.95832 -1.84062,7.099 -2.71842,9.44319 -1.32521,3.53901 -5.16484,9.68988 -8.99902,14.41595 -1.55766,1.91997 -2.92769,3.41549 -5.61202,6.12606 l -2.73269,2.75938 h -0.71975 -0.71973 z"
     id="path8543"
     inkscape:connector-curvature="0" />
  <path
     style="opacity:1;fill:#000000;fill-opacity:1;fill-rule:nonzero;stroke:#000000;stroke-width:0.08992227;stroke-linecap:butt;stroke-linejoin:round;stroke-miterlimit:4;stroke-dasharray:none;stroke-dashoffset:0;stroke-opacity:0.61568627;paint-order:fill markers stroke"
     d="m 435.01281,419.45449 c 1.3848,-1.27525 4.14208,-4.03715 5.39228,-5.40128 1.71173,-1.86774 3.15694,-3.61077 4.73675,-5.71282 5.62915,-7.49003 9.31973,-15.28389 10.50606,-22.18697 0.35062,-2.04024 0.42162,-6.01522 0.11578,-6.48199 l -0.13207,-0.20156 -0.19472,0.19472 c -0.10711,0.10709 -0.3592,0.59913 -0.56022,1.09339 -0.2324,0.57143 -0.3691,0.82424 -0.37538,0.69427 -0.006,-0.1124 -0.18531,0.31069 -0.39971,0.94024 -1.31582,3.86369 -3.29933,8.92234 -3.62255,9.23878 -0.13805,0.13514 -0.0341,-0.21658 0.61765,-2.09034 0.33733,-0.96981 0.89541,-2.71741 1.24017,-3.88355 0.34477,-1.16615 0.79009,-2.6503 0.98963,-3.29811 0.19955,-0.64782 0.34227,-1.24251 0.3172,-1.32153 -0.0251,-0.079 0.12204,-0.76313 0.32692,-1.52022 1.16735,-4.31352 1.64903,-7.98915 1.93477,-14.7638 0.0545,-1.29237 0.10744,-2.34094 0.11763,-2.33014 0.0467,0.0495 0.0561,13.01736 0.01,13.63256 l -0.0522,0.69497 0.11731,-0.77671 c 0.17164,-1.13654 0.27194,-4.59562 0.3248,-11.20102 0.0257,-3.21519 0.0687,-7.21627 0.0955,-8.89133 l 0.0487,-3.04552 h 0.61076 0.61076 l -0.0399,10.9353 c -0.0394,10.80834 -0.039,10.84416 0.0338,3.08641 0.0405,-4.31689 0.10299,-8.60312 0.13875,-9.52495 0.066,-1.70199 0.0606,2.17744 -0.02,14.26697 -0.0301,4.51097 -0.0623,5.75241 -0.1707,6.58164 -0.16275,1.24456 -0.23335,1.41709 -0.60235,1.47166 l -0.27646,0.0409 0.0321,0.81758 c 0.0177,0.44969 0.0269,1.25909 0.0206,1.79871 l -0.0114,0.98112 -1.22886,4.7829 c -2.08587,8.11861 -2.59003,9.49614 -5.02679,13.73554 -2.3438,4.07769 -5.88146,8.93157 -8.90849,12.22302 -0.45491,0.49463 -1.97377,2.06748 -3.37527,3.49521 l -2.54818,2.59586 h -0.76004 -0.76006 z m 18.94943,-39.06509 c 0.0279,-0.11243 -0.02,-0.0573 -0.10646,0.12262 -0.0865,0.17988 -0.15701,0.38223 -0.15668,0.44969 0,0.13985 0.18666,-0.26461 0.26314,-0.57231 z m 0.77552,0.1635 c 0,-0.0773 -0.026,-0.0622 -0.0703,0.0409 -0.0387,0.0899 -0.0702,0.2187 -0.0702,0.28616 0,0.0773 0.026,0.0622 0.0702,-0.0409 0.0387,-0.0899 0.0703,-0.2187 0.0703,-0.28616 z m -0.56333,-0.69495 c 0,-0.045 -0.0357,-0.0266 -0.0793,0.0409 -0.0436,0.0675 -0.0793,0.15943 -0.0793,0.2044 0,0.045 0.0357,0.0266 0.0793,-0.0409 0.0436,-0.0675 0.0793,-0.15944 0.0793,-0.2044 z m 1.14908,-1.16507 c 0.13374,-0.32241 0.4834,-0.24004 0.80765,0.19028 0.29524,0.3918 0.50568,0.54202 0.80613,0.57539 0.15748,0.0175 0.12917,-0.0352 -0.19077,-0.35516 -0.20663,-0.20663 -0.43349,-0.46391 -0.50413,-0.57172 -0.0978,-0.14925 -0.14493,-0.17048 -0.19759,-0.0889 -0.12288,0.19023 -0.2169,-0.0841 -0.27729,-0.80896 -0.0312,-0.37438 -0.0828,-0.69681 -0.11464,-0.7165 -0.0319,-0.0197 -0.124,0.24758 -0.20473,0.59395 -0.17441,0.7482 -0.24247,0.89656 -0.52543,1.1451 -0.19938,0.17514 -0.20102,0.18182 -0.0234,0.0956 0.10503,-0.051 0.21101,-0.0727 0.23551,-0.0482 0.0245,0.0245 -0.0151,0.27582 -0.0878,0.55851 -0.22185,0.86148 -0.22426,0.95561 -0.007,0.26866 0.11386,-0.35975 0.24135,-0.73686 0.28333,-0.83804 z m 2.19439,0.23308 c 0.0511,-0.15285 0.0884,-0.44719 0.0829,-0.65407 -0.01,-0.37492 -0.0101,-0.37454 -0.0811,0.11439 -0.0392,0.26982 -0.10924,0.60011 -0.15577,0.73397 -0.0465,0.13387 -0.0518,0.20746 -0.0118,0.16353 0.0401,-0.044 0.11463,-0.20496 0.16575,-0.35782 z m -1.48812,-0.92804 c -0.0227,-0.0562 -0.0412,-0.0101 -0.0412,0.10222 0,0.1124 0.0186,0.1584 0.0412,0.10219 0.0227,-0.0562 0.0227,-0.14819 0,-0.20441 z m -0.0767,-0.81612 c -0.0182,-0.14695 -0.0335,-0.0464 -0.0339,0.22338 0,0.2698 0.0144,0.39003 0.0331,0.26717 0.0187,-0.12284 0.019,-0.34359 0,-0.49055 z m 1.71852,-1.55488 c -0.0151,-0.371 -0.0276,-0.0675 -0.0276,0.6745 0,0.74197 0.0123,1.04551 0.0276,0.67453 0.0151,-0.37099 0.0151,-0.97805 0,-1.34903 z"
     id="path8549"
     inkscape:connector-curvature="0" />
  <path
     style="opacity:1;fill:#000000;fill-opacity:1;fill-rule:nonzero;stroke:#000000;stroke-width:0.08992227;stroke-linecap:butt;stroke-linejoin:round;stroke-miterlimit:4;stroke-dasharray:none;stroke-dashoffset:0;stroke-opacity:0.61568627;paint-order:fill markers stroke"
     d="m 429.69413,420.05804 c 0.0427,-0.0365 0.46399,-0.35681 0.93615,-0.71185 4.76954,-3.58636 8.97113,-7.75685 12.31304,-12.22186 3.21987,-4.30198 5.94512,-9.18384 8.16961,-14.63458 0.79026,-1.93639 1.18718,-3.03227 2.36901,-6.54074 1.44896,-4.30154 1.76082,-5.0798 1.92907,-4.81414 0.0988,0.15607 0.0917,2.5272 -0.011,3.66952 -0.32383,3.59995 -1.67942,7.8708 -4.00936,12.63179 -4.05173,8.27931 -10.49211,16.69651 -16.91413,22.10576 l -0.69147,0.58244 h -2.08425 c -1.14635,0 -2.04932,-0.0299 -2.00659,-0.0663 z"
     id="path8551"
     inkscape:connector-curvature="0" />
  <path
     style="opacity:1;fill:#000000;fill-opacity:1;fill-rule:nonzero;stroke:#000000;stroke-width:0.08992227;stroke-linecap:butt;stroke-linejoin:round;stroke-miterlimit:4;stroke-dasharray:none;stroke-dashoffset:0;stroke-opacity:0.61568627;paint-order:fill markers stroke"
     d="m 429.64916,420.09353 c 0,-0.0169 0.4875,-0.39688 1.08331,-0.84425 2.4565,-1.84443 4.39856,-3.53775 6.72861,-5.86684 4.74633,-4.74438 8.13468,-9.48677 11.30564,-15.82362 1.31755,-2.63298 2.15169,-4.53249 3.12359,-7.11305 0.71978,-1.91117 2.71608,-7.7737 2.66462,-7.82517 -0.0187,-0.0188 -0.13365,0.26491 -0.25535,0.63037 -0.12173,0.36544 -0.23896,0.64678 -0.26053,0.62519 -0.0588,-0.0588 0.59937,-2.1846 0.96562,-3.11886 0.64897,-1.65553 0.75696,-1.53813 0.79503,0.86433 0.045,2.8418 -0.17422,4.61252 -0.92562,7.47512 -1.58564,6.04072 -4.83597,12.45282 -9.54334,18.82655 -0.96821,1.31094 -0.69869,0.77342 0.37258,-0.74307 1.28624,-1.82079 3.25479,-4.93092 3.81289,-6.02401 0.23212,-0.45464 -0.0289,-0.0515 -0.8208,1.26763 -3.96884,6.61135 -8.87135,12.54461 -14.03433,16.98512 l -0.83179,0.71541 h -2.09006 c -1.14954,0 -2.09007,-0.0138 -2.09007,-0.0309 z m 20.48494,-20.04105 c 0.21412,-0.4047 0.35233,-0.69904 0.30711,-0.65407 -0.0452,0.045 -0.25826,0.41287 -0.47345,0.81759 -0.21521,0.40471 -0.35341,0.69904 -0.30713,0.65408 0.0463,-0.045 0.25934,-0.4129 0.47347,-0.8176 z m 1.063,-2.01184 c 0.34023,-0.67932 0.60579,-1.24791 0.59018,-1.26354 -0.0156,-0.0156 -0.31202,0.54019 -0.65863,1.23512 -0.34661,0.69496 -0.6122,1.26355 -0.59018,1.26355 0.022,0 0.31839,-0.5558 0.65863,-1.23513 z m 1.09198,-2.32139 c 0,-0.045 -0.0887,0.0838 -0.197,0.28614 -0.10836,0.20236 -0.19703,0.40472 -0.19703,0.44969 0,0.045 0.0887,-0.0838 0.19703,-0.28617 0.10834,-0.20236 0.197,-0.4047 0.197,-0.44966 z m 0.32756,-0.73584 c 0,-0.045 -0.0705,0.047 -0.15666,0.20439 -0.0862,0.15739 -0.15665,0.32296 -0.15665,0.36792 0,0.045 0.0705,-0.047 0.15665,-0.2044 0.0862,-0.15737 0.15666,-0.32294 0.15666,-0.36791 z m 0.16789,-0.4088 c 0,-0.045 -0.0357,-0.0266 -0.0793,0.0409 -0.0436,0.0675 -0.0793,0.15943 -0.0793,0.2044 0,0.045 0.0356,0.0266 0.0793,-0.0409 0.0436,-0.0675 0.0793,-0.15944 0.0793,-0.2044 z m 0.24197,-0.57231 c 0,-0.045 -0.0526,0.0101 -0.11685,0.12264 -0.0643,0.11242 -0.11684,0.24118 -0.11684,0.28616 0,0.045 0.0526,-0.0103 0.11684,-0.12264 0.0643,-0.11243 0.11685,-0.2412 0.11685,-0.28616 z m 0.16681,-0.40879 c 0,-0.045 -0.0357,-0.0266 -0.0793,0.0409 -0.0436,0.0674 -0.0793,0.15942 -0.0793,0.20438 0,0.045 0.0357,0.0266 0.0793,-0.0409 0.0436,-0.0674 0.0793,-0.15942 0.0793,-0.20438 z m 0.16353,-0.40881 c 0,-0.045 -0.0357,-0.0266 -0.0793,0.0409 -0.0436,0.0675 -0.0793,0.15944 -0.0793,0.20441 0,0.045 0.0357,0.0266 0.0793,-0.0409 0.0436,-0.0674 0.0793,-0.15943 0.0793,-0.2044 z m 0.24526,-0.65407 c 0,-0.045 -0.0357,-0.0266 -0.0792,0.0409 -0.0436,0.0675 -0.0793,0.15944 -0.0793,0.2044 0,0.045 0.0357,0.0266 0.0793,-0.0409 0.0436,-0.0675 0.0792,-0.15943 0.0792,-0.2044 z m 0.45343,-1.27094 c 0.15671,-0.46532 0.28213,-0.8848 0.27872,-0.93218 -0.003,-0.0474 -0.13204,0.27996 -0.28587,0.72742 -0.35879,1.04379 -0.39336,1.159 -0.33004,1.09973 0.0288,-0.0269 0.18049,-0.42964 0.33719,-0.89497 z m 0.56088,-1.87679 c 0.0356,-0.19644 0.0294,-0.23489 -0.0197,-0.12263 -0.0393,0.0899 -0.0949,0.29228 -0.12343,0.44967 -0.0356,0.19643 -0.0295,0.23488 0.0197,0.12264 0.0394,-0.0899 0.0949,-0.29229 0.12346,-0.44968 z m 0.38154,-1.46915 c 0.0977,-0.45639 0.16159,-0.84587 0.14195,-0.86551 -0.0301,-0.0301 -0.12847,0.38774 -0.43413,1.84411 -0.0397,0.18927 -0.0371,0.19133 0.0358,0.0278 0.0433,-0.0971 0.15864,-0.55 0.25636,-1.00639 z m 0.30454,-1.67857 c 0,-0.20623 -0.0105,-0.19321 -0.0674,0.0818 -0.0857,0.41414 -0.0818,0.74879 0.005,0.40879 0.0343,-0.1349 0.0625,-0.35565 0.0627,-0.49055 z m 0.0769,-0.71445 c -0.0196,-0.10169 -0.0363,-0.0378 -0.0372,0.14212 0,0.17989 0.0151,0.26308 0.0356,0.18491 0.0205,-0.0781 0.0212,-0.22533 0.002,-0.32703 z m 0.0816,-0.81855 c -0.0195,-0.10118 -0.0354,-0.0184 -0.0354,0.18396 0,0.20236 0.016,0.28515 0.0354,0.18397 0.0195,-0.10118 0.0195,-0.26675 0,-0.36793 z m 0.0194,-3.58566 c -0.0851,-0.15908 -0.0986,-0.16072 -0.24335,-0.0297 -0.15679,0.14188 -0.6914,1.33375 -0.62711,1.39804 0.0196,0.0196 0.11631,-0.18023 0.21495,-0.44401 0.25959,-0.69409 0.49171,-1.05517 0.5843,-0.90889 0.0403,0.0638 0.0822,0.79655 0.0931,1.62845 l 0.0197,1.51254 0.0242,-1.49401 c 0.0158,-0.97749 -0.007,-1.55225 -0.0659,-1.66241 z"
     id="path8553"
     inkscape:connector-curvature="0" />
  <path
     style="opacity:1;fill:#000000;fill-opacity:1;fill-rule:nonzero;stroke:#000000;stroke-width:0.08992227;stroke-linecap:butt;stroke-linejoin:round;stroke-miterlimit:4;stroke-dasharray:none;stroke-dashoffset:0;stroke-opacity:0.61568627;paint-order:fill markers stroke"
     d="m 426.19174,420.05515 c -0.11916,-0.0471 -0.0534,-0.12319 0.35585,-0.41179 0.7268,-0.51254 3.13067,-2.44304 4.49843,-3.61259 1.59483,-1.36369 6.24423,-6.03445 7.56323,-7.59798 5.27771,-6.25608 8.99437,-12.23623 11.97006,-19.25993 0.63537,-1.49968 1.89288,-4.8199 2.29883,-6.06961 0.15055,-0.46345 0.28521,-0.80818 0.29923,-0.76607 0.0294,0.0881 -1.60905,5.54202 -2.10252,6.99878 -0.18167,0.53627 -0.31549,0.98986 -0.29738,1.00797 0.11975,0.11977 2.75942,-8.601 2.69338,-8.89826 -0.0363,-0.16327 -0.0271,-0.17639 0.0526,-0.0752 0.0823,0.10455 0.0894,0.10061 0.0481,-0.0267 -0.0266,-0.0821 0.0421,-0.50649 0.15278,-0.94304 0.11065,-0.43652 0.18097,-0.88441 0.15625,-0.99529 -0.0369,-0.16553 -0.0278,-0.17964 0.051,-0.0789 0.0791,0.1011 0.0883,0.0882 0.0525,-0.0733 -0.0239,-0.10773 0.0441,-0.56764 0.15106,-1.02198 0.96065,-4.07985 1.3824,-9.58926 1.6342,-21.34768 0.025,-1.16915 0.0696,-2.54883 0.0991,-3.06595 0.17521,-3.07255 0.17075,2.97849 -0.007,10.13814 l -0.0376,1.51254 0.0734,-1.30814 c 0.0404,-0.71949 0.0871,-1.41853 0.10389,-1.55343 0.0168,-0.1349 0.0412,1.98061 0.0544,4.70115 0.0213,4.41752 0.0394,5.8218 0.0948,7.35833 0.0495,1.37293 0.13803,-1.76398 0.17188,-6.09105 0.0211,-2.69807 0.0155,-3.78342 -0.0125,-2.41191 -0.0334,1.63545 -0.0537,-0.0247 -0.0589,-4.8238 -0.004,-4.0246 0.018,-7.59338 0.0499,-7.93064 0.0318,-0.33726 0.0711,1.70469 0.0872,4.53764 l 0.0293,5.15083 0.0539,-4.94643 c 0.0297,-2.72054 0.0592,-5.02922 0.0657,-5.1304 0.011,-0.17337 0.047,-0.18395 0.62493,-0.18395 h 0.61319 l 0.0134,4.23104 0.0134,4.23103 0.0588,-2.7635 c 0.0323,-1.51993 0.0814,-2.78618 0.10913,-2.81388 0.0659,-0.0659 0.0569,3.74988 -0.0319,13.63068 -0.0869,9.66311 -0.12367,10.14086 -0.79484,10.33851 l -0.26397,0.0777 0.0517,1.48625 c 0.036,1.03504 0.0213,1.64437 -0.0485,2.00712 -0.10099,0.52481 -1.38208,5.57096 -2.14561,8.45153 -0.85257,3.21642 -1.66864,5.53383 -2.61115,7.41485 -1.41524,2.82446 -3.78613,6.58158 -6.15233,9.74951 -2.52887,3.38569 -3.94451,4.98383 -8.38752,9.46871 l -1.76168,1.77827 h -0.77739 -0.77742 l 0.9811,-0.91005 c 2.43543,-2.25902 5.5129,-5.48611 7.47381,-7.83708 1.30684,-1.56681 3.60477,-4.57852 3.49339,-4.57852 -0.0211,0 -0.17738,0.19315 -0.34724,0.42923 -0.61876,0.86001 -1.35815,1.78765 -1.39524,1.75056 -0.0209,-0.0209 0.0967,-0.2256 0.26141,-0.45484 0.1647,-0.22925 0.28073,-0.41681 0.25786,-0.41681 -0.0229,0 -0.18123,0.19316 -0.35192,0.42924 -2.59642,3.59138 -6.38928,7.75936 -9.63733,10.5906 l -1.14464,0.99774 h -2.11797 -2.11797 l 0.15575,-0.17738 0.15576,-0.1774 -0.24937,0.18067 c -0.22171,0.16064 -0.33342,0.17805 -1.00694,0.15695 l -0.75759,-0.0238 0.72079,-0.52844 c 7.20591,-5.28297 12.79061,-11.30056 17.07528,-18.39883 1.12113,-1.85732 3.37794,-6.17161 3.27974,-6.26979 -0.0409,-0.041 -0.0622,-0.006 -1.14421,1.91069 -4.89305,8.66517 -11.35449,16.19105 -19.20989,22.37445 l -1.21044,0.9528 -0.54739,-0.006 c -0.30107,-0.003 -0.61317,-0.0317 -0.69357,-0.0635 z m 3.95841,-0.40089 c 0.10169,-0.12968 0.0988,-0.13257 -0.0309,-0.0309 -0.13619,0.10679 -0.1795,0.17394 -0.11221,0.17394 0.0169,0 0.0814,-0.0644 0.14308,-0.14307 z m 2.1153,-1.62249 c 4.13675,-3.30066 8.12367,-7.44215 11.09037,-11.52031 1.10299,-1.51621 2.94054,-4.34055 3.37778,-5.19171 0.21643,-0.42129 -0.0691,-0.009 -0.65081,0.94023 -3.69691,6.03119 -8.56929,11.49917 -14.31144,16.06088 -0.69505,0.55216 -1.3189,1.06078 -1.38636,1.13026 -0.17338,0.17864 0.77226,-0.53512 1.88046,-1.41935 z m 12.9284,-10.15084 c 0.1017,-0.12967 0.0988,-0.13256 -0.0309,-0.0309 -0.0787,0.0617 -0.14308,0.1261 -0.14308,0.14308 0,0.0673 0.0672,0.024 0.17396,-0.11221 z m 1.81327,-2.16662 c 0.7415,-1.08123 1.03494,-1.53984 0.90243,-1.41035 -0.13109,0.12809 -1.67366,2.4119 -1.62908,2.4119 0.0219,0 0.34888,-0.4507 0.72665,-1.00155 z m 1.40386,-2.14079 0.13819,-0.25068 -0.16159,0.19901 c -0.0889,0.10945 -0.22378,0.31181 -0.29978,0.44967 l -0.13821,0.25068 0.16159,-0.199 c 0.0889,-0.10944 0.22378,-0.3118 0.2998,-0.44968 z m 0.50156,-0.80254 c 0.16889,-0.28105 0.35973,-0.59379 0.42412,-0.69495 0.0644,-0.10118 0.0971,-0.18397 0.0727,-0.18397 -0.0244,0 -0.18255,0.22995 -0.35143,0.51099 -0.1689,0.28105 -0.35975,0.59378 -0.42412,0.69496 -0.0644,0.10118 -0.0971,0.18395 -0.0727,0.18395 0.0244,0 0.18254,-0.22993 0.35144,-0.51098 z m 1.16194,-1.96273 c 0.70586,-1.24667 1.89545,-3.52354 1.8935,-3.62415 0,-0.0412 -0.2982,0.49532 -0.66088,1.19231 -0.60611,1.1648 -1.17435,2.20502 -1.68603,3.08641 -0.11093,0.19111 -0.18196,0.34747 -0.15783,0.34747 0.0241,0 0.29919,-0.45092 0.61124,-1.00204 z m -3.05149,0.021 c 0.0698,-0.1349 0.10845,-0.24529 0.086,-0.24529 -0.0225,0 -0.0979,0.11039 -0.1677,0.24529 -0.0698,0.1349 -0.10845,0.24526 -0.086,0.24526 0.0225,0 0.0979,-0.11036 0.1677,-0.24526 z m 0.36792,-0.65408 c 0.0481,-0.0899 0.0691,-0.16352 0.0466,-0.16352 -0.0225,0 -0.0803,0.0736 -0.12839,0.16352 -0.0481,0.0899 -0.0691,0.16351 -0.0466,0.16351 0.0225,0 0.0802,-0.0736 0.12838,-0.16351 z m 5.06136,-4.04709 c 0,-0.045 -0.1069,0.1206 -0.23757,0.36793 -0.13065,0.24731 -0.23755,0.48646 -0.23755,0.53143 0,0.045 0.1069,-0.1206 0.23755,-0.36793 0.13067,-0.24731 0.23757,-0.48646 0.23757,-0.53143 z m 0.86479,-2.02901 c 0.30201,-0.75623 0.53594,-1.38814 0.5198,-1.40428 -0.0235,-0.0235 -1.18446,2.76499 -1.34424,3.22889 -0.18543,0.53837 0.3841,-0.7221 0.82444,-1.82461 z m -2.82179,-0.26025 c 0,-0.045 -0.0357,-0.0266 -0.0793,0.0409 -0.0436,0.0675 -0.0793,0.15944 -0.0793,0.20441 0,0.045 0.0357,0.0266 0.0793,-0.0409 0.0436,-0.0675 0.0793,-0.15944 0.0793,-0.20441 z m -0.44468,-1.12419 c 0.33919,-0.68575 0.54179,-1.15997 0.45018,-1.0538 -0.21541,0.24968 -0.20989,0.16752 0.0377,-0.56042 0.11231,-0.33023 0.18966,-0.61499 0.17184,-0.63281 -0.0179,-0.0179 -0.0968,0.16317 -0.17554,0.40216 -0.13071,0.39666 -0.57914,1.58015 -1.00884,2.66247 -0.30404,0.76581 -0.10554,0.45651 0.52466,-0.8176 z m 0.68994,0.55188 c 0,-0.045 -0.0356,-0.0266 -0.0793,0.0409 -0.0436,0.0675 -0.0792,0.15944 -0.0792,0.20441 0,0.045 0.0357,0.0266 0.0792,-0.0409 0.0436,-0.0675 0.0793,-0.15944 0.0793,-0.20441 z m 0.40881,-0.98111 c 0,-0.045 -0.0357,-0.0266 -0.0793,0.0409 -0.0436,0.0675 -0.0793,0.15943 -0.0793,0.2044 0,0.045 0.0357,0.0266 0.0793,-0.0409 0.0436,-0.0674 0.0793,-0.15944 0.0793,-0.2044 z m 3.15362,-0.87891 c 0.39648,-1.22312 1.10354,-3.88793 1.09588,-4.13027 -0.002,-0.0779 -0.16803,0.5022 -0.36794,1.28913 -0.29671,1.16796 -0.93276,3.31369 -1.15033,3.88068 -0.0265,0.069 -0.0273,0.12553 -0.002,0.12553 0.0256,0 0.21641,-0.52429 0.42412,-1.16507 z m -2.8266,0.0613 c 0,-0.045 -0.0356,-0.0266 -0.0793,0.0409 -0.0436,0.0675 -0.0792,0.15944 -0.0792,0.20441 0,0.045 0.0356,0.0266 0.0792,-0.0409 0.0436,-0.0675 0.0793,-0.15942 0.0793,-0.20439 z m 0.16353,-0.40881 c 0,-0.045 -0.0357,-0.0266 -0.0793,0.0409 -0.0436,0.0675 -0.0793,0.15944 -0.0793,0.20441 0,0.045 0.0357,0.0266 0.0793,-0.0409 0.0436,-0.0675 0.0793,-0.15944 0.0793,-0.20441 z m 0.24528,-0.65407 c 0,-0.045 -0.0357,-0.0266 -0.0793,0.0409 -0.0436,0.0674 -0.0793,0.15944 -0.0793,0.20441 0,0.045 0.0357,0.0266 0.0793,-0.0409 0.0436,-0.0675 0.0793,-0.15944 0.0793,-0.20441 z m -0.5756,-0.32704 c 0,-0.045 -0.0526,0.0103 -0.11685,0.12264 -0.0643,0.11243 -0.11684,0.2412 -0.11684,0.28616 0,0.045 0.0526,-0.0101 0.11684,-0.12264 0.0643,-0.11242 0.11685,-0.2412 0.11685,-0.28616 z m 1.07244,-1.02498 c 0.71865,-1.99001 1.78246,-5.23154 1.70022,-5.18072 -0.12798,0.0791 -0.0285,-0.31295 0.46821,-1.84457 0.24005,-0.7403 0.425,-1.35749 0.41099,-1.37149 -0.014,-0.014 -0.13061,0.2499 -0.2591,0.58646 -0.12852,0.33656 -0.25812,0.57235 -0.28803,0.52394 -0.0299,-0.0484 -0.11844,0.10944 -0.19671,0.35077 -0.35373,1.09047 -1.72284,4.83474 -2.2814,6.23924 -0.33882,0.85196 -0.60312,1.56191 -0.58735,1.5777 0.0703,0.0703 1.19697,-2.83088 2.26212,-5.82476 0.35196,-0.98929 0.64168,-1.75553 0.64383,-1.70276 0.01,0.24078 -1.68672,5.88599 -2.26849,7.54854 -0.0236,0.0674 -0.0204,0.1029 0.007,0.0788 0.0276,-0.0241 0.2024,-0.46563 0.38854,-0.9811 z m 3.33858,-3.63529 c -0.002,-0.1349 -0.0729,0.14103 -0.15752,0.6132 -0.0847,0.47216 -0.15092,0.91365 -0.14726,0.98111 0.0116,0.21469 0.30855,-1.33842 0.30478,-1.59431 z m 0.1644,-3.2786 c 0.009,-2.05793 -0.0467,-2.56718 -0.28046,-2.56718 -0.0604,0 -0.12998,0.0326 -0.15463,0.0725 -0.0246,0.0399 0.016,0.0675 0.0902,0.0613 0.24586,-0.0204 0.29038,0.49541 0.26008,3.01389 -0.0162,1.34904 -0.006,2.23203 0.0232,1.96223 0.029,-0.2698 0.0567,-1.41405 0.0616,-2.54277 z m -0.65099,-2.03575 c 0,-0.045 -0.0526,0.0101 -0.11685,0.12264 -0.0643,0.11241 -0.11684,0.24118 -0.11684,0.28615 0,0.045 0.0526,-0.0101 0.11684,-0.12262 0.0643,-0.11243 0.11685,-0.2412 0.11685,-0.28617 z m 1.31576,-1.17578 c -0.23003,-0.26447 -0.47938,-0.47603 -0.55413,-0.47012 -0.14955,0.0118 -0.25218,-0.37656 -0.26056,-0.98601 -0.008,-0.56294 -0.13221,-0.47019 -0.32235,0.24018 -0.0984,0.36771 -0.23847,0.73434 -0.31123,0.81474 -0.0803,0.0887 -0.0952,0.14621 -0.0379,0.14621 0.0519,0 0.0982,0.0828 0.10278,0.18395 0.007,0.14705 0.0255,0.13065 0.0936,-0.0818 0.0705,-0.2199 0.12654,-0.26572 0.32472,-0.26572 0.18594,0 0.33132,0.10052 0.65045,0.44969 0.23173,0.25355 0.48116,0.44967 0.5719,0.44967 0.13091,0 0.0829,-0.0897 -0.25728,-0.48083 z m -2.39874,-0.27034 c -0.0261,-0.0652 -0.0455,-0.0458 -0.0494,0.0494 -0.003,0.0862 0.0158,0.13447 0.0429,0.10731 0.0272,-0.0272 0.0301,-0.0977 0.006,-0.15672 z m 0.0818,-0.32704 c -0.0261,-0.0652 -0.0455,-0.0458 -0.0494,0.0494 -0.003,0.0862 0.0158,0.13448 0.0429,0.10731 0.0272,-0.0272 0.0301,-0.0977 0.006,-0.15671 z m 0.0801,-0.41391 c -0.0227,-0.0562 -0.0412,-0.0103 -0.0412,0.10221 0,0.11241 0.0186,0.15841 0.0412,0.1022 0.0227,-0.0562 0.0227,-0.14819 0,-0.20441 z m 0.0835,-0.32193 c -0.0261,-0.0652 -0.0455,-0.0458 -0.0494,0.0494 -0.003,0.0862 0.0158,0.13447 0.0429,0.10731 0.0272,-0.0272 0.0301,-0.0977 0.006,-0.15672 z m 0.0818,-0.32702 c -0.0261,-0.0652 -0.0455,-0.0459 -0.0494,0.0494 -0.003,0.0862 0.0158,0.13448 0.0429,0.10731 0.0272,-0.0272 0.0301,-0.0977 0.006,-0.15671 z m 0.08,-0.41391 c -0.0227,-0.0562 -0.0412,-0.0101 -0.0412,0.1022 0,0.11242 0.0186,0.1584 0.0412,0.10221 0.0227,-0.0562 0.0227,-0.14819 0,-0.20441 z m 0.0818,-0.4088 c -0.0227,-0.0562 -0.0413,-0.0101 -0.0413,0.10221 0,0.11241 0.0186,0.1584 0.0413,0.10219 0.0227,-0.0562 0.0227,-0.14819 0,-0.2044 z m 0.0818,-0.40879 c -0.0227,-0.0562 -0.0412,-0.0101 -0.0412,0.10219 0,0.11243 0.0186,0.15841 0.0412,0.10221 0.0227,-0.0562 0.0227,-0.14819 0,-0.2044 z m 0.0818,-0.40879 c -0.0227,-0.0562 -0.0412,-0.0103 -0.0412,0.10219 0,0.11241 0.0186,0.15841 0.0412,0.1022 0.0227,-0.0562 0.0227,-0.14819 0,-0.20439 z m 1.31035,-0.2044 c -0.0206,-0.0787 -0.0374,-0.0144 -0.0374,0.14307 0,0.15739 0.0168,0.22178 0.0374,0.14307 0.0206,-0.0787 0.0206,-0.20745 0,-0.28614 z m -1.22609,-0.24372 c -0.0207,-0.0795 -0.0391,-0.0343 -0.0407,0.10063 -0.002,0.13492 0.0153,0.2 0.0377,0.14463 0.0224,-0.0553 0.0238,-0.16573 0.003,-0.24526 z m 0.0818,-0.49057 c -0.0207,-0.0795 -0.0391,-0.0343 -0.0407,0.10065 -0.002,0.1349 0.0153,0.19998 0.0377,0.14464 0.0224,-0.0553 0.0238,-0.16574 0.003,-0.24529 z m 0.0818,-0.49055 c -0.0207,-0.0795 -0.0391,-0.0342 -0.0407,0.10065 -0.002,0.1349 0.0153,0.19998 0.0377,0.14464 0.0224,-0.0554 0.0238,-0.16574 0.003,-0.24529 z m 0.0815,-0.57387 c -0.0206,-0.0787 -0.0374,-0.0144 -0.0374,0.14309 0,0.15737 0.0168,0.22176 0.0374,0.14307 0.0206,-0.0787 0.0206,-0.20746 0,-0.28616 z m 0.0818,-0.57231 c -0.0206,-0.0787 -0.0374,-0.0144 -0.0374,0.14307 0,0.15739 0.0168,0.22178 0.0374,0.14309 0.0206,-0.0787 0.0206,-0.20748 0,-0.28616 z m 0.0818,-0.65408 c -0.0206,-0.0787 -0.0374,-0.0143 -0.0374,0.14308 0,0.15739 0.0168,0.22178 0.0374,0.14309 0.0206,-0.0787 0.0206,-0.20748 0,-0.28617 z m 0.0831,-0.77671 c -0.0195,-0.10118 -0.0354,-0.0184 -0.0354,0.18395 0,0.20236 0.016,0.28514 0.0354,0.18396 0.0195,-0.10116 0.0195,-0.26673 0,-0.36791 z m 0.0818,-0.73583 c -0.0195,-0.10118 -0.0354,-0.0184 -0.0354,0.18395 0,0.20236 0.016,0.28514 0.0354,0.18396 0.0195,-0.10117 0.0195,-0.26673 0,-0.36791 z m 0.0827,-0.93912 c -0.0188,-0.12428 -0.0347,-0.042 -0.0353,0.18284 0,0.22485 0.0147,0.32653 0.0342,0.22597 0.0194,-0.10055 0.0199,-0.28452 0.002,-0.40881 z m 0.0823,-1.02164 c -0.0182,-0.14694 -0.0335,-0.0464 -0.0339,0.22338 0,0.2698 0.0143,0.39003 0.0331,0.26718 0.0186,-0.12286 0.019,-0.34361 0,-0.49056 z m 0.0817,-1.22786 c -0.018,-0.14614 -0.033,-0.0266 -0.033,0.26572 0,0.29229 0.0149,0.41186 0.033,0.26573 0.0182,-0.14615 0.0182,-0.3853 0,-0.53145 z m 0.0825,-1.63517 c -0.0171,-0.19111 -0.0313,-0.0348 -0.0313,0.34748 0,0.38221 0.0142,0.53857 0.0313,0.34747 0.0171,-0.19111 0.0171,-0.50385 0,-0.69495 z"
     id="path8555"
     inkscape:connector-curvature="0" />
  <path
     style="opacity:1;fill:#000000;fill-opacity:1;fill-rule:nonzero;stroke:#000000;stroke-width:0.08992227;stroke-linecap:butt;stroke-linejoin:round;stroke-miterlimit:4;stroke-dasharray:none;stroke-dashoffset:0;stroke-opacity:0.61568627;paint-order:fill markers stroke"
     d="m 412.68412,428.76153 c 3.59741,-1.81138 6.81669,-3.44898 7.15393,-3.63908 1.11637,-0.62929 3.51288,-2.08478 3.48257,-2.1151 -0.0164,-0.0164 -0.52153,0.25307 -1.12256,0.59878 -1.92781,1.10891 -4.07435,2.17323 -9.78768,4.85296 -5.46812,2.56473 -5.5989,2.62095 -6.09106,2.61752 l -0.50298,-0.004 6.70426,-3.37072 c 7.51909,-3.7804 9.30264,-4.78002 12.39348,-6.94607 l 0.86541,-0.60649 0.7565,0.0486 0.75653,0.0486 -0.51818,0.37792 c -0.28501,0.20786 -0.90449,0.64514 -1.37665,0.97176 -1.70729,1.181 -1.11061,0.86881 0.96814,-0.50658 l 1.33608,-0.88396 h 0.82647 0.82646 l -0.52736,0.38382 c -0.82457,0.6002 -3.44652,2.31207 -4.57443,2.98665 -2.87396,1.71888 -4.95758,2.77259 -12.07142,6.10468 -4.87163,2.28185 -5.10075,2.37979 -5.55964,2.37679 l -0.4786,-0.003 6.54073,-3.29342 z"
     id="path8557"
     inkscape:connector-curvature="0" />
  <path
     style="opacity:1;fill:#000000;fill-opacity:1;fill-rule:nonzero;stroke:#000000;stroke-width:0.08992227;stroke-linecap:butt;stroke-linejoin:round;stroke-miterlimit:4;stroke-dasharray:none;stroke-dashoffset:0;stroke-opacity:0.61568627;paint-order:fill markers stroke"
     d="m 408.1056,431.11554 c 8.954,-4.53374 11.98289,-6.10242 13.28658,-6.88125 0.8323,-0.49721 1.60492,-0.98447 1.71695,-1.0828 0.22017,-0.19323 0.26391,-0.21555 -1.75853,0.89776 -1.38919,0.76471 -4.41988,2.25103 -8.6256,4.23018 -5.45713,2.56806 -6.00604,2.80234 -6.55859,2.79911 -0.20243,-0.002 1.04659,-0.66537 5.08693,-2.70506 8.46041,-4.27111 9.68578,-4.9407 12.64308,-6.90855 l 1.89178,-1.25879 0.52013,0.006 c 0.97677,0.0109 0.96648,0.0319 -0.53048,1.08813 -0.7487,0.52829 -1.36128,0.97786 -1.36128,0.99907 0,0.0705 0.35499,-0.1444 1.85511,-1.12289 l 1.48718,-0.97005 0.7612,0.002 0.76119,0.002 -0.2044,0.16319 c -0.28147,0.22474 -3.04845,2.06673 -4.04709,2.69417 -2.35828,1.48171 -5.44121,3.09008 -10.50605,5.481 -6.34426,2.99487 -7.28393,3.40808 -7.90579,3.4764 -0.34849,0.0383 -0.18071,-0.0642 1.48768,-0.90898 z"
     id="path8559"
     inkscape:connector-curvature="0" />
  <path
     style="opacity:1;fill:#000000;fill-opacity:1;fill-rule:nonzero;stroke:#000000;stroke-width:0.06358465;stroke-linecap:butt;stroke-linejoin:round;stroke-miterlimit:4;stroke-dasharray:none;stroke-dashoffset:0;stroke-opacity:0.61568627;paint-order:fill markers stroke"
     d=""
     id="path8563"
     inkscape:connector-curvature="0" />
  <path
     style="opacity:1;fill:#000000;fill-opacity:1;fill-rule:nonzero;stroke:#000000;stroke-width:0.06358465;stroke-linecap:butt;stroke-linejoin:round;stroke-miterlimit:4;stroke-dasharray:none;stroke-dashoffset:0;stroke-opacity:0.61568627;paint-order:fill markers stroke"
     d=""
     id="path8565"
     inkscape:connector-curvature="0" />
  <path
     style="opacity:1;fill:#000000;fill-opacity:1;fill-rule:nonzero;stroke:#000000;stroke-width:0.08034304;stroke-linecap:butt;stroke-linejoin:round;stroke-miterlimit:4;stroke-dasharray:none;stroke-dashoffset:0;stroke-opacity:0.61568627;paint-order:fill markers stroke"
     d="m 60.760081,407.21053 v -31.7792 h 8.205326 8.205328 l -0.241841,0.2115 c -0.133012,0.11634 -0.568326,0.52367 -0.967366,0.90518 -1.496744,1.43096 -2.349313,2.44885 -2.349313,2.80483 0,0.2463 1.493101,1.97569 6.814965,7.89342 6.638898,7.38223 11.403796,12.57442 28.5975,31.16194 13.14105,14.20638 18.96726,20.52 18.96726,20.55407 0,0.0143 -15.12717,0.0257 -33.615929,0.0257 h -33.61593 z"
     id="path8567"
     inkscape:connector-curvature="0" />
  <path
     style="opacity:1;fill:#000000;fill-opacity:1;fill-rule:nonzero;stroke:#000000;stroke-width:0.06358465;stroke-linecap:butt;stroke-linejoin:round;stroke-miterlimit:4;stroke-dasharray:none;stroke-dashoffset:0;stroke-opacity:0.61568627;paint-order:fill markers stroke"
     d=""
     id="path8569"
     inkscape:connector-curvature="0" />
  <path
     style="fill:none;stroke:#000000;stroke-width:6.36293936;stroke-linecap:butt;stroke-linejoin:miter;stroke-miterlimit:4;stroke-dasharray:none;stroke-opacity:1"
     d="M 442.77745,19.766859 C 423.13268,13.074685 403.09708,6.2493703 355.83096,3.2769014 308.56483,0.30443255 233.87354,1.1182877 159.18166,1.9321492"
     id="path4796"
     inkscape:connector-curvature="0"
     inkscape:path-effect="#path-effect4798"
     inkscape:original-d="M 442.77745,19.766859 C 423.15543,13.007911 403.09716,6.2491491 383.25674,-0.50942928 308.56483,0.30425058 233.87354,1.1181056 159.18166,1.9321492"
     transform="matrix(1.1145733,0,0,1.0369633,-45.774933,2.5541142)" />
</svg>
