<?xml version="1.0" encoding="UTF-8" standalone="no"?>
<!-- Generator: Adobe Illustrator 16.0.0, SVG Export Plug-In . SVG Version: 6.00 Build 0)  -->

<svg
   xmlns:osb="http://www.openswatchbook.org/uri/2009/osb"
   xmlns:dc="http://purl.org/dc/elements/1.1/"
   xmlns:cc="http://creativecommons.org/ns#"
   xmlns:rdf="http://www.w3.org/1999/02/22-rdf-syntax-ns#"
   xmlns:svg="http://www.w3.org/2000/svg"
   xmlns="http://www.w3.org/2000/svg"
   xmlns:sodipodi="http://sodipodi.sourceforge.net/DTD/sodipodi-0.dtd"
   xmlns:inkscape="http://www.inkscape.org/namespaces/inkscape"
   version="1.1"
   id="Capa_1"
   x="0px"
   y="0px"
   width="875.27515"
   height="500.68292"
   viewBox="0 0 875.27514 500.68292"
   xml:space="preserve"
   sodipodi:docname="delivery-truck.svg"
   inkscape:version="0.92.5 (0.92.5+68)"><metadata
   id="metadata41"><rdf:RDF><cc:Work
       rdf:about=""><dc:format>image/svg+xml</dc:format><dc:type
         rdf:resource="http://purl.org/dc/dcmitype/StillImage" /><dc:title></dc:title></cc:Work></rdf:RDF></metadata><defs
   id="defs39"><linearGradient
     id="linearGradient8570"
     osb:paint="solid"><stop
       style="stop-color:#000000;stop-opacity:1;"
       offset="0"
       id="stop8568" /></linearGradient></defs><sodipodi:namedview
   pagecolor="#ffffff"
   bordercolor="#666666"
   borderopacity="1"
   objecttolerance="10"
   gridtolerance="10"
   guidetolerance="10"
   inkscape:pageopacity="0"
   inkscape:pageshadow="2"
   inkscape:window-width="1366"
   inkscape:window-height="694"
   id="namedview37"
   showgrid="false"
   fit-margin-top="0"
   fit-margin-left="0"
   fit-margin-right="0"
   fit-margin-bottom="0"
   inkscape:zoom="0.54535033"
   inkscape:cx="356.78946"
   inkscape:cy="150.57138"
   inkscape:window-x="0"
   inkscape:window-y="21"
   inkscape:window-maximized="1"
   inkscape:current-layer="g4" />
<g
   id="g4"
   transform="translate(164.78325,-44.687336)">
	
<g
   id="g4791"
   transform="matrix(1.0387696,0,0,1.1195344,6.7677156,-64.935238)"><path
     inkscape:connector-curvature="0"
     id="path2"
     d="M 82.951748,395.89266 V 135.50867 c 0,-14.469 11.729,-26.199 26.199002,-26.199 h 260.25 c 14.469,0 26.198,11.73 26.198,26.199 v 260.38499 c 0,4.823 -3.909,8.733 -8.733,8.733 H 91.684748 c -4.824,0 -8.733,-3.91 -8.733,-8.734 z m 210.160002,89.202 c 0,30.01 -24.329,54.338 -54.338,54.338 -30.009,0 -54.338,-24.328 -54.338,-54.338 0,-30.011 24.329,-54.338 54.338,-54.338 30.009,0 54.338,24.327 54.338,54.338 z m -27.17,0 c 0,-15.005 -12.164,-27.169 -27.169,-27.169 -15.005,0 -27.17,12.164 -27.17,27.169 0,15.005 12.165,27.17 27.17,27.17 15.005,0 27.169,-12.165 27.169,-27.17 z m -73.969,-54.339 H 70.210748 c -4.823,0 -8.733,3.91 -8.733,8.733 v 26.495 c 0,4.823 3.91,8.733 8.733,8.733 h 97.598002 c 2.548,-17.484 11.373,-32.928 24.164,-43.961 z m 385.443,54.339 c 0,30.01 -24.329,54.338 -54.338,54.338 -30.01,0 -54.338,-24.328 -54.338,-54.338 0,-30.011 24.328,-54.338 54.338,-54.338 30.009,-0.001 54.338,24.327 54.338,54.338 z m -27.168,0 c 0,-15.005 -12.165,-27.169 -27.17,-27.169 -15.006,0 -27.169,12.164 -27.169,27.169 0,15.005 12.164,27.17 27.169,27.17 15.005,0 27.17,-12.165 27.17,-27.17 z m 123.23,-45.606 v 26.495 c 0,4.823 -3.91,8.733 -8.733,8.733 h -70.704 c -5.057,-34.683 -34.906,-61.427 -70.961,-61.427 -36.062,0 -65.912,26.745 -70.969,61.427 h -142.372 c -2.549,-17.483 -11.373,-32.928 -24.164,-43.961 h 134.994 v -249.791 c 0,-9.646 7.82,-17.466 17.466,-17.466 h 82.445 c 23.214,0 44.911,11.531 57.9,30.77 l 53.15,78.721 c 7.796,11.547 11.962,25.161 11.962,39.094 v 118.672 h 21.253 c 4.823,0 8.733,3.91 8.733,8.733 z m -88.592,-164.483 -42.501,-60.393 c -1.636,-2.324 -4.3,-3.707 -7.142,-3.707 h -66.295 c -4.822,0 -8.733,3.91 -8.733,8.733 v 60.393 c 0,4.824 3.91,8.733 8.733,8.733 h 108.798 c 7.074,0 11.212,-7.973 7.14,-13.759 z" /><g
     transform="translate(33.711864,1.2966102)"
     id="g10042"><rect
       style="opacity:1;fill:#000000;fill-opacity:0.94901961;fill-rule:nonzero;stroke:#222831;stroke-width:18.96500015;stroke-linecap:round;stroke-linejoin:round;stroke-miterlimit:4;stroke-dasharray:none;stroke-dashoffset:0;stroke-opacity:1;paint-order:normal"
       id="rect10010"
       width="183.67772"
       height="7.3387408"
       x="-189.37759"
       y="271.10645"
       ry="0.073495083" /><rect
       style="opacity:1;fill:#000000;fill-opacity:0.94901961;fill-rule:nonzero;stroke:#222831;stroke-width:18.96500015;stroke-linecap:round;stroke-linejoin:round;stroke-miterlimit:4;stroke-dasharray:none;stroke-dashoffset:0;stroke-opacity:1;paint-order:normal"
       id="rect10010-5"
       width="183.67772"
       height="7.3387408"
       x="-189.37759"
       y="318.43274"
       ry="0.073495083" /><rect
       style="opacity:1;fill:#000000;fill-opacity:0.94901961;fill-rule:nonzero;stroke:#222831;stroke-width:18.96500015;stroke-linecap:round;stroke-linejoin:round;stroke-miterlimit:4;stroke-dasharray:none;stroke-dashoffset:0;stroke-opacity:1;paint-order:normal"
       id="rect10010-3"
       width="183.67772"
       height="7.3387408"
       x="-189.37759"
       y="367.70392"
       ry="0.073495083" /></g><path
     transform="translate(32.122277,23.88178)"
     inkscape:connector-curvature="0"
     id="path10048"
     d="m 195.84861,514.13927 c -18.12251,-4.02796 -33.06183,-16.64067 -39.44222,-33.29959 -2.792,-7.28981 -3.59223,-11.86368 -3.53984,-20.23266 0.0783,-12.51514 4.00731,-23.54375 11.83723,-33.22714 10.57827,-13.0823 24.94744,-19.9248 41.84187,-19.9248 38.80055,0 64.80809,39.11346 49.78309,74.87016 -6.67409,15.88304 -21.62648,28.1257 -38.79201,31.76193 -5.36124,1.1357 -16.69036,1.16291 -21.68812,0.0521 z m 22.87466,-28.44005 c 21.83426,-10.79108 19.82727,-41.98939 -3.24007,-50.36642 -3.38772,-1.23027 -4.9862,-1.42095 -10.04873,-1.19868 -5.08264,0.22316 -6.70824,0.5865 -10.43841,2.33309 -10.8023,5.05803 -17.44137,17.41101 -15.44591,28.73942 1.38758,7.87745 5.77209,14.89673 11.66852,18.68046 5.69409,3.65388 9.3664,4.64724 16.37216,4.42867 5.69015,-0.17754 6.65747,-0.4049 11.13244,-2.61654 z"
     style="opacity:1;fill:#000000;fill-opacity:0.94901961;fill-rule:nonzero;stroke:#222831;stroke-width:12.29510593;stroke-linecap:round;stroke-linejoin:round;stroke-miterlimit:4;stroke-dasharray:none;stroke-dashoffset:0;stroke-opacity:1;paint-order:normal" /><path
     transform="translate(32.122277,23.88178)"
     inkscape:connector-curvature="0"
     id="path10050"
     d="m 195.52446,507.53667 c -9.55966,-2.30253 -20.42282,-9.40742 -26.59215,-17.39221 -6.52427,-8.44416 -9.55465,-17.52479 -9.53271,-28.56499 0.0232,-11.66636 2.74264,-20.11183 9.3429,-29.01509 9.45647,-12.75607 23.62295,-19.24149 40.3628,-18.4781 19.8547,0.90544 36.30216,13.39341 42.9128,32.58218 1.59538,4.63092 1.79035,6.12388 1.82029,13.93856 0.0383,9.98089 -0.86728,14.30216 -4.56798,21.79926 -5.93067,12.01471 -17.72122,21.46843 -31.01577,24.8686 -6.12555,1.56665 -16.80212,1.68961 -22.73018,0.26179 z m 17.24553,-13.46004 c 7.32062,-0.58955 17.41252,-7.38955 22.3602,-15.06646 6.25382,-9.70353 6.67754,-22.57875 1.10498,-33.57566 -1.98306,-3.9134 -7.68391,-10.0241 -11.83961,-12.6908 -12.30357,-7.89518 -29.32243,-6.28432 -40.36183,3.82032 -14.57064,13.33686 -14.54331,35.94938 0.0599,49.52708 5.89423,5.48032 15.88069,9.13783 23.10037,8.46043 1.06971,-0.10036 3.57892,-0.31407 5.57604,-0.47491 z"
     style="opacity:1;fill:#000000;fill-opacity:0.94901961;fill-rule:nonzero;stroke:#222831;stroke-width:12.29510593;stroke-linecap:round;stroke-linejoin:round;stroke-miterlimit:4;stroke-dasharray:none;stroke-dashoffset:0;stroke-opacity:1;paint-order:normal" /><path
     transform="translate(32.122277,23.88178)"
     inkscape:connector-curvature="0"
     id="path10052"
     d="m 196.82107,501.36684 c -7.44697,-1.72722 -18.17243,-8.99028 -23.33216,-15.80008 -5.75414,-7.59429 -7.78623,-15.01464 -7.31833,-26.72347 0.46935,-11.74532 3.49313,-18.64163 11.90434,-27.15015 7.96755,-8.05973 17.86403,-11.67481 30.41564,-11.1105 17.18561,0.77265 30.24058,10.20782 36.99063,26.73412 1.71795,4.2061 1.85516,5.1785 1.87522,13.29026 0.0187,7.55028 -0.19479,9.41532 -1.55456,13.58181 -1.9529,5.98389 -6.71185,13.20978 -11.52549,17.50012 -4.49563,4.00688 -12.24401,8.11522 -17.75592,9.41451 -4.56137,1.07523 -15.56474,1.22234 -19.69937,0.26338 z m 17.70915,-1.23917 c 10.77978,-1.74926 22.91371,-11.17445 28.01031,-21.75739 4.367,-9.06794 4.96785,-19.62565 1.69348,-29.75691 -3.91854,-12.1244 -15.12988,-22.70906 -27.40906,-25.87698 -5.13301,-1.32427 -14.77956,-1.3239 -19.9103,7.6e-4 -20.09665,5.18858 -33.32954,25.79398 -29.3087,45.63763 3.20678,15.82611 13.93333,27.22476 29.53927,31.39011 4.23331,1.1299 11.69773,1.28567 17.385,0.36278 z"
     style="opacity:1;fill:#000000;fill-opacity:0.94901961;fill-rule:nonzero;stroke:#222831;stroke-width:12.29510593;stroke-linecap:round;stroke-linejoin:round;stroke-miterlimit:4;stroke-dasharray:none;stroke-dashoffset:0;stroke-opacity:1;paint-order:normal" /><path
     transform="translate(32.122277,23.88178)"
     inkscape:connector-curvature="0"
     id="path10054"
     d="m 479.52145,514.03054 c -35.70133,-7.9364 -53.41261,-48.02152 -35.26219,-79.80729 6.64651,-11.63966 18.13208,-20.67927 31.68,-24.93346 4.23447,-1.32967 6.13613,-1.51932 15.21232,-1.51709 10.05248,0.002 10.56312,0.0686 16.53178,2.14012 22.68957,7.87486 37.10282,27.83623 37.07221,51.3425 -0.0204,15.60616 -5.60762,28.36848 -17.24034,39.37982 -4.27832,4.04979 -6.86637,5.85967 -12.14798,8.49539 -3.69128,1.8421 -8.46186,3.82088 -10.60126,4.39731 -5.57742,1.50273 -19.49891,1.77996 -25.24454,0.5027 z m 19.93814,-26.8531 c 9.66085,-2.98394 17.09948,-11.80324 18.48199,-21.91241 1.65975,-12.13631 -4.24664,-23.34049 -15.12813,-28.69743 -4.33651,-2.13485 -4.77981,-2.21694 -11.97239,-2.21694 -7.1893,0 -7.63241,0.0819 -11.82673,2.1869 -5.48496,2.75267 -10.26481,7.72089 -13.01605,13.52897 -1.92517,4.06421 -2.07551,4.87466 -2.07551,11.18879 0,6.29771 0.15355,7.13132 2.05157,11.13763 6.12543,12.92944 19.85912,18.99317 33.48525,14.78449 z"
     style="opacity:1;fill:#000000;fill-opacity:0.94901961;fill-rule:nonzero;stroke:#222831;stroke-width:12.29510593;stroke-linecap:round;stroke-linejoin:round;stroke-miterlimit:4;stroke-dasharray:none;stroke-dashoffset:0;stroke-opacity:1;paint-order:normal" /><path
     transform="translate(32.122277,23.88178)"
     inkscape:connector-curvature="0"
     id="path10056"
     d="m 479.84088,507.61951 c -13.86654,-3.16323 -27.36319,-14.7708 -32.83637,-28.24038 -5.45291,-13.41969 -4.37085,-29.73622 2.79267,-42.1111 2.96514,-5.12223 11.53564,-13.79649 16.56118,-16.76167 8.43293,-4.97564 14.59934,-6.56729 25.46739,-6.57356 7.97509,-0.005 12.4564,1.07202 20.07159,4.82211 12.9191,6.362 21.53983,17.0011 25.06213,30.92986 1.89899,7.5095 1.4754,19.35078 -0.95891,26.80572 -2.16017,6.61539 -6.89362,13.82712 -12.62293,19.23185 -5.0312,4.74618 -9.13869,7.29308 -16.54362,10.25806 -4.60427,1.84359 -5.86801,2.05302 -13.93856,2.30995 -6.37347,0.20291 -10.0533,0.0138 -13.05457,-0.67084 z m 22.30164,-14.84065 c 8.25121,-2.99503 14.32649,-8.21904 18.36068,-15.78795 8.8715,-16.64464 2.37695,-36.83597 -14.76476,-45.90308 l -4.86228,-2.57192 H 490.82743 480.7787 l -4.55311,2.43415 c -7.29529,3.90015 -13.37686,10.61104 -16.87192,18.61784 -1.05738,2.42233 -1.26565,4.39594 -1.26565,11.99365 0,9.07639 0.004,9.10308 2.25141,13.63233 2.96204,5.97057 10.48577,13.65435 15.81979,16.15634 8.29331,3.89008 17.76704,4.41098 25.9833,1.42864 z"
     style="opacity:1;fill:#000000;fill-opacity:0.94901961;fill-rule:nonzero;stroke:#222831;stroke-width:12.29510593;stroke-linecap:round;stroke-linejoin:round;stroke-miterlimit:4;stroke-dasharray:none;stroke-dashoffset:0;stroke-opacity:1;paint-order:normal" /><path
     transform="translate(32.122277,23.88178)"
     inkscape:connector-curvature="0"
     id="path10058"
     d="m 485.96514,500.38006 c -4.24571,-0.67748 -9.78683,-2.34531 -12.70523,-3.82418 -7.27604,-3.68704 -15.01288,-11.94996 -18.92776,-20.21476 l -2.07888,-4.38877 0.006,-10.69703 0.006,-10.69703 2.88311,-5.83475 c 3.84606,-7.78356 11.45185,-15.5423 19.22463,-19.61123 l 5.26337,-2.75529 11.26841,0.009 11.26841,0.009 4.86228,2.64126 c 2.67426,1.45269 6.40281,3.82482 8.28566,5.27141 13.31303,10.22833 18.62612,29.73805 12.34255,45.32198 -5.87502,14.57067 -19.05834,24.04202 -34.54627,24.81922 -2.86381,0.14371 -6.08215,0.12163 -7.15185,-0.0491 z m 14.03008,-19.80985 c 7.14629,-3.27168 11.55814,-9.76672 12.08439,-17.79041 0.57423,-8.7554 -3.26154,-16.05983 -10.55515,-20.10005 -3.71255,-2.05653 -4.20007,-2.15481 -10.69703,-2.15638 -6.32458,-0.002 -7.0392,0.13143 -10.07943,1.87527 -3.90221,2.23826 -7.7424,6.32132 -9.41998,10.01574 -0.91796,2.02155 -1.21788,4.19877 -1.21788,8.84094 0,7.06863 0.9625,9.89226 4.83197,14.1753 4.6855,5.18629 9.85077,7.32525 16.89323,6.99556 3.16123,-0.14799 5.68108,-0.72113 8.15988,-1.85597 z"
     style="opacity:1;fill:#000000;fill-opacity:0.94901961;fill-rule:nonzero;stroke:#222831;stroke-width:12.29510593;stroke-linecap:round;stroke-linejoin:round;stroke-miterlimit:4;stroke-dasharray:none;stroke-dashoffset:0;stroke-opacity:1;paint-order:normal" /><path
     transform="translate(32.122277,23.88178)"
     inkscape:connector-curvature="0"
     id="path10060"
     d="m 483.04777,493.27628 c -1.96113,-0.52651 -5.1429,-1.67899 -7.07062,-2.56109 -4.80157,-2.19712 -11.99578,-9.61865 -15.13781,-15.61611 l -2.42717,-4.63294 v -9.21082 -9.21082 l 2.41792,-4.63294 c 3.05393,-5.8516 10.58906,-13.53671 16.14953,-16.47095 l 3.98057,-2.10054 h 9.82174 c 10.89199,0 11.38712,0.13735 18.93716,5.25345 16.73455,11.33976 18.96734,36.3573 4.50618,50.49008 -8.27073,8.08291 -20.62181,11.52655 -31.1775,8.69268 z m 20.26775,-7.5703 c 8.18924,-4.04734 13.42859,-11.30912 14.71775,-20.3989 1.75114,-12.3471 -4.02773,-23.33819 -15.2536,-29.01151 -3.66686,-1.85315 -4.23077,-1.94469 -11.95224,-1.94014 -7.33904,0.004 -8.40766,0.15727 -11.3235,1.62076 -4.96405,2.49151 -11.52527,9.02084 -13.50454,13.43891 -3.09606,6.91089 -2.9503,18.0504 0.3219,24.60236 1.87669,3.7577 7.45331,9.46763 11.05525,11.31952 5.06873,2.60602 7.66602,3.13764 14.48239,2.96427 6.08669,-0.15481 6.88419,-0.33547 11.45659,-2.59527 z"
     style="opacity:1;fill:#000000;fill-opacity:0.94901961;fill-rule:nonzero;stroke:#222831;stroke-width:12.29510593;stroke-linecap:round;stroke-linejoin:round;stroke-miterlimit:4;stroke-dasharray:none;stroke-dashoffset:0;stroke-opacity:1;paint-order:normal" /><path
     transform="translate(32.122277,23.88178)"
     inkscape:connector-curvature="0"
     id="path10098"
     d="m 54.173549,377.42031 c -2.559923,-2.55992 -2.59322,-4.32203 -2.59322,-137.23674 V 105.54005 l 3.018041,-5.714529 c 1.982172,-3.753158 5.173737,-7.049618 9.298743,-9.60436 L 70.177816,86.33133 H 207.17355 344.16928 l 6.2807,3.889831 c 4.12501,2.554742 7.31658,5.851202 9.29875,9.60436 l 3.01804,5.714529 v 134.64352 c 0,132.91471 -0.0333,134.67682 -2.59322,137.23674 -2.56341,2.56341 -4.32203,2.59322 -153,2.59322 -148.677967,0 -150.436587,-0.0298 -153.000001,-2.59322 z"
     style="opacity:1;fill:#00adb5;fill-opacity:1;fill-rule:nonzero;stroke:#222831;stroke-width:24.59021187;stroke-linecap:round;stroke-linejoin:round;stroke-miterlimit:4;stroke-dasharray:none;stroke-dashoffset:0;stroke-opacity:1;paint-order:normal" /><path
     transform="translate(32.122277,23.88178)"
     inkscape:connector-curvature="0"
     id="path10102"
     d="m 277.94619,448.40972 c -0.25274,-0.89142 -1.17589,-4.2464 -2.05144,-7.45551 -2.48459,-9.1067 -8.27494,-19.57307 -14.91318,-26.95638 l -6.07376,-6.75548 h 66.89558 66.89558 l 0.003,-126.09534 c 0.003,-140.66154 -0.57793,-131.70351 8.94185,-138.06314 4.37868,-2.92514 4.6932,-2.9431 51.2161,-2.92405 51.47414,0.0211 56.57537,0.5811 70.82781,7.77571 13.84524,6.98935 22.07448,16.64226 51.93922,60.92546 15.14965,22.46377 29.21829,44.05233 31.26367,47.97458 7.36287,14.11919 7.49695,15.65199 7.5137,85.90042 l 0.0154,64.50636 h 12.02929 c 17.88226,0 17.79275,-0.107 17.79275,21.26663 0,15.04522 -0.30064,17.50183 -2.37117,19.37563 -2.08819,1.88979 -6.72726,2.14587 -38.8736,2.14587 h -36.50244 l -0.75127,-3.56567 c -1.91388,-9.0835 -7.65672,-21.20971 -13.95569,-29.46788 -31.8807,-41.79672 -97.65619,-35.36451 -121.14225,11.84655 -2.89476,5.81898 -5.66642,12.96655 -6.15922,15.88348 l -0.89604,5.30352 H 348.9977 c -55.36409,0 -70.69111,-0.34963 -71.05151,-1.62076 z M 551.93686,262.79351 c 5.47545,-4.95728 3.97579,-8.33356 -16.9592,-38.18129 -10.82808,-15.43796 -21.37966,-30.25705 -23.44794,-32.93131 l -3.76052,-4.86229 h -37.49274 c -35.76393,0 -37.61231,0.11957 -40.08596,2.59322 -2.45797,2.45798 -2.59322,4.32203 -2.59322,35.74202 0,34.50166 0.40278,37.34311 5.59535,39.47282 1.55794,0.63898 28.29888,1.04367 59.42432,0.89931 53.62803,-0.24871 56.73458,-0.39181 59.31991,-2.73248 z"
     style="opacity:1;fill:#eeeeee;fill-opacity:1;fill-rule:nonzero;stroke:#222831;stroke-width:10.18999958;stroke-linecap:round;stroke-linejoin:round;stroke-miterlimit:4;stroke-dasharray:none;stroke-dashoffset:0;stroke-opacity:1;paint-order:normal" /><path
     transform="translate(32.122277,23.88178)"
     inkscape:connector-curvature="0"
     id="path10104"
     d="m 33.946047,449.03817 c -3.352916,-2.2388 -4.408091,-7.2713 -4.408091,-21.02376 0,-13.56739 0.185452,-14.59234 3.182589,-17.58947 l 3.182588,-3.18259 h 61.119771 61.119776 l -5.92792,6.59326 c -6.79284,7.55528 -13.03896,19.50094 -15.36614,29.38767 l -1.60232,6.8072 -49.936798,-0.0199 c -27.46524,-0.0109 -50.578795,-0.44853 -51.363455,-0.97246 z"
     style="opacity:1;fill:#eeeeee;fill-opacity:1;fill-rule:nonzero;stroke:#222831;stroke-width:9.68999958;stroke-linecap:round;stroke-linejoin:round;stroke-miterlimit:4;stroke-dasharray:none;stroke-dashoffset:0;stroke-opacity:1;paint-order:normal" /></g></g>
<g
   id="g6"
   transform="translate(196.90553,-20.805556)">
</g>
<g
   id="g8"
   transform="translate(196.90553,-20.805556)">
</g>
<g
   id="g10"
   transform="translate(196.90553,-20.805556)">
</g>
<g
   id="g12"
   transform="translate(196.90553,-20.805556)">
</g>
<g
   id="g14"
   transform="translate(196.90553,-20.805556)">
</g>
<g
   id="g16"
   transform="translate(196.90553,-20.805556)">
</g>
<g
   id="g18"
   transform="translate(196.90553,-20.805556)">
</g>
<g
   id="g20"
   transform="translate(196.90553,-20.805556)">
</g>
<g
   id="g22"
   transform="translate(196.90553,-20.805556)">
</g>
<g
   id="g24"
   transform="translate(196.90553,-20.805556)">
</g>
<g
   id="g26"
   transform="translate(196.90553,-20.805556)">
</g>
<g
   id="g28"
   transform="translate(196.90553,-20.805556)">
</g>
<g
   id="g30"
   transform="translate(196.90553,-20.805556)">
</g>
<g
   id="g32"
   transform="translate(196.90553,-20.805556)">
</g>
<g
   id="g34"
   transform="translate(196.90553,-20.805556)">
</g>
</svg>