<?xml version="1.0" encoding="UTF-8" standalone="no"?>
<svg
   xmlns:dc="http://purl.org/dc/elements/1.1/"
   xmlns:cc="http://creativecommons.org/ns#"
   xmlns:rdf="http://www.w3.org/1999/02/22-rdf-syntax-ns#"
   xmlns:svg="http://www.w3.org/2000/svg"
   xmlns="http://www.w3.org/2000/svg"
   xmlns:sodipodi="http://sodipodi.sourceforge.net/DTD/sodipodi-0.dtd"
   xmlns:inkscape="http://www.inkscape.org/namespaces/inkscape"
   id="Flat"
   height="634.60431"
   viewBox="0 0 600 634.60431"
   width="600"
   version="1.1"
   sodipodi:docname="traceability.svg"
   inkscape:version="0.92.5 (0.92.5+68)">
  <metadata
     id="metadata69">
    <rdf:RDF>
      <cc:Work
         rdf:about="">
        <dc:format>image/svg+xml</dc:format>
        <dc:type
           rdf:resource="http://purl.org/dc/dcmitype/StillImage" />
        <dc:title></dc:title>
      </cc:Work>
    </rdf:RDF>
  </metadata>
  <defs
     id="defs67" />
  <sodipodi:namedview
     pagecolor="#ffffff"
     bordercolor="#666666"
     borderopacity="1"
     objecttolerance="10"
     gridtolerance="10"
     guidetolerance="10"
     inkscape:pageopacity="0"
     inkscape:pageshadow="2"
     inkscape:window-width="1366"
     inkscape:window-height="694"
     id="namedview65"
     showgrid="false"
     inkscape:zoom="0.32593203"
     inkscape:cx="-517.91779"
     inkscape:cy="105.97084"
     inkscape:window-x="0"
     inkscape:window-y="21"
     inkscape:window-maximized="1"
     inkscape:current-layer="g4887"
     fit-margin-top="0"
     fit-margin-left="0"
     fit-margin-right="0"
     fit-margin-bottom="0" />
  <g
     id="g4827"
     transform="matrix(1.2931037,0,0,1.2931034,-31.0346,-31.034482)">
    <path
       id="path2"
       d="m 344,88 c 0,0 0,-48 -32,-64 -32,16 -32,64 -32,64 v 72 h 64 z"
       inkscape:connector-curvature="0"
       style="fill:#35a872" />
    <path
       id="path4"
       d="m 336,192 c 0,0 9.455,-80 104,-80 0,0 -47.273,40 -47.273,80 z"
       inkscape:connector-curvature="0"
       style="fill:#248256" />
    <path
       id="path6"
       d="m 288,192 c 0,0 -9.455,-80 -104,-80 0,0 47.273,40 47.273,80 z"
       inkscape:connector-curvature="0"
       style="fill:#248256" />
    <path
       id="path8"
       d="m 304,152 c 0,0 9.455,-80 104,-80 0,0 -47.273,40 -47.273,80 z"
       inkscape:connector-curvature="0"
       style="fill:#319c6a" />
    <path
       id="path10"
       d="m 320,152 c 0,0 -9.455,-80 -104,-80 0,0 47.273,40 47.273,80 z"
       inkscape:connector-curvature="0"
       style="fill:#2e9163" />
    <rect
       id="rect12"
       y="144"
       x="184"
       width="256"
       rx="128"
       height="304"
       style="fill:#f7b030" />
    <g
       id="g34"
       style="fill:#e09f2c">
      <path
         id="path14"
         d="m 402.79,318.2 -45.26,43.89 -45.41,-44.08 45.26,-43.94 z"
         inkscape:connector-curvature="0" />
      <path
         id="path16"
         d="m 312.12,318.01 -45.4,44.08 -45.27,-43.9 45.4,-44.14 z"
         inkscape:connector-curvature="0" />
      <path
         id="path18"
         d="m 309.87,144.02 -43.14,41.93 -22.93,-22.28 a 127.231,127.231 0 0 1 66.07,-19.65 z"
         inkscape:connector-curvature="0" />
      <path
         id="path20"
         d="m 312.1,230.05 -45.25,44 -45.41,-44.08 45.29,-44.02 z"
         inkscape:connector-curvature="0" />
      <path
         id="path22"
         d="m 402.81,229.97 -45.43,44.1 -45.28,-44.02 45.39,-44.12 z"
         inkscape:connector-curvature="0" />
      <path
         id="path24"
         d="m 380.31,163.74 -22.82,22.19 -43.11,-41.91 a 127.258,127.258 0 0 1 65.93,19.72 z"
         inkscape:connector-curvature="0" />
      <path
         id="path26"
         d="m 221.44,229.97 -37.31,36.27 a 127.238,127.238 0 0 1 16.17,-56.79 z"
         inkscape:connector-curvature="0" />
      <path
         id="path28"
         d="m 439.86,265.98 -37.05,-36.01 20.97,-20.36 a 127.14,127.14 0 0 1 16.08,56.37 z"
         inkscape:connector-curvature="0" />
      <path
         id="path30"
         d="M 440,282.12 V 320 a 127.891,127.891 0 0 1 -3.73,30.76 L 402.79,318.2 Z"
         inkscape:connector-curvature="0" />
      <path
         id="path32"
         d="m 221.45,318.19 -33.68,32.75 A 128.261,128.261 0 0 1 184,320 v -38.12 z"
         inkscape:connector-curvature="0" />
    </g>
    <path
       id="path36"
       d="m 266.72,362.09 -47.49,46.11 a 127.877,127.877 0 0 1 -31.46,-57.26 l 33.68,-32.75 z"
       inkscape:connector-curvature="0"
       style="fill:#f7b030" />
    <path
       id="path38"
       d="m 404.89,408.07 a 128.015,128.015 0 0 1 -185.66,0.13 l 47.49,-46.11 45.4,44.03 45.41,-44.03 z"
       inkscape:connector-curvature="0"
       style="fill:#e09f2c" />
    <path
       id="path40"
       d="m 349.25,442.12 a 1.831,1.831 0 0 0 -0.3,0.46 128.6,128.6 0 0 1 -73.95,-0.02 v -0.44 l 37.12,-36 z"
       inkscape:connector-curvature="0"
       style="fill:#f7b030" />
    <path
       id="path42"
       d="M 488,328 C 488,405.32 405.62,488 304,488 202.38,488 120,405.32 120,328 Z"
       inkscape:connector-curvature="0"
       style="fill:#35a872" />
    <path
       id="path44"
       d="M 455.67,328 C 450.46,391.3 384.55,456 304,456 223.45,456 157.54,391.3 152.33,328 Z"
       inkscape:connector-curvature="0"
       style="fill:#d13330" />
    <path
       id="path46"
       d="m 416,360 a 8,8 0 0 1 -16,0 c 0,-4.418 3.582,-16 8,-16 4.418,0 8,11.582 8,16 z"
       inkscape:connector-curvature="0"
       style="fill:#5e3725" />
    <path
       id="path48"
       d="m 376,400 a 8,8 0 0 1 -16,0 c 0,-4.418 3.582,-16 8,-16 4.418,0 8,11.582 8,16 z"
       inkscape:connector-curvature="0"
       style="fill:#5e3725" />
    <path
       id="path50"
       d="m 336,376 a 8,8 0 0 1 -16,0 c 0,-4.418 3.582,-16 8,-16 4.418,0 8,11.582 8,16 z"
       inkscape:connector-curvature="0"
       style="fill:#5e3725" />
    <path
       id="path52"
       d="m 288,376 a 8,8 0 0 1 -16,0 c 0,-4.418 3.582,-16 8,-16 4.418,0 8,11.582 8,16 z"
       inkscape:connector-curvature="0"
       style="fill:#5e3725" />
    <path
       id="path54"
       d="m 312,424 a 8,8 0 0 1 -16,0 c 0,-4.418 3.582,-16 8,-16 4.418,0 8,11.582 8,16 z"
       inkscape:connector-curvature="0"
       style="fill:#5e3725" />
    <path
       id="path56"
       d="m 232,400 a 8,8 0 0 0 16,0 c 0,-4.418 -3.582,-16 -8,-16 -4.418,0 -8,11.582 -8,16 z"
       inkscape:connector-curvature="0"
       style="fill:#5e3725" />
    <path
       id="path58"
       d="m 183.912,280 c -6.38,0 -23,4.354 -29.855,9.5 a 29.742,29.742 0 0 1 -36.114,0 c -6.854,-5.145 -23.475,-9.5 -29.855,-9.5 -41.723,0 -69.92,37.576 -63.06,83.661 l 5,33.576 a 170.458,170.458 0 0 0 19.586,57.937 C 63.937,480.84 91.4,493.251 117.619,485.91 L 131,481.122 a 14.779,14.779 0 0 1 10,0 l 13.381,4.788 c 26.222,7.341 53.682,-5.07 68.008,-30.736 a 170.458,170.458 0 0 0 19.586,-57.937 l 5,-33.576 C 253.832,317.576 225.635,280 183.912,280 Z"
       inkscape:connector-curvature="0"
       style="fill:#eb423f" />
    <path
       id="path60"
       d="m 136,336 a 8,8 0 0 1 -8,-8 c 0,-0.75 0.023,-18.623 2.036,-39.758 2.781,-29.2 7.931,-49.615 15.308,-60.68 a 8,8 0 0 1 13.312,8.875 C 146.646,254.453 144,308.642 144,328 a 8,8 0 0 1 -8,8 z"
       inkscape:connector-curvature="0"
       style="fill:#5e3725" />
    <path
       id="path62"
       d="m 165.657,314.343 a 8,8 0 0 0 -11.314,0 C 154.287,314.4 148.143,320 136,320 c -12.143,0 -18.184,-5.512 -18.435,-5.747 l 0.088,0.087 a 8,8 0 1 0 -11.306,11.321 C 107.42,326.733 117.244,336 136,336 c 18.772,0 28.6,-9.285 29.657,-10.343 a 8,8 0 0 0 0,-11.314 z"
       inkscape:connector-curvature="0"
       style="fill:#c7312e" />
  </g>
  <g
     id="g4794"
     transform="matrix(1.3333333,0,0,1.3333333,-97.885084,-78.160922)">
    <g
       transform="matrix(0.58593779,0,0,0.58593779,186.0419,234.57394)"
       id="g4887">
      <path
         style="fill:#2b4d66"
         inkscape:connector-curvature="0"
         d="m 324.195,282.327 -41.868,41.868 c -4.057,4.057 -10.634,4.057 -14.691,0 l -26.59,-26.59 56.56,-56.56 26.59,26.59 c 4.056,4.057 4.056,10.635 -0.001,14.692 z"
         id="path4871" />
      <path
         style="fill:#4a80aa"
         inkscape:connector-curvature="0"
         d="m 296.232,296.232 h 47.993 v 47.993 h -47.993 z"
         transform="matrix(0.707,-0.707,0.707,0.707,-132.643,320.229)"
         id="path4873" />
      <path
         style="fill:#407093"
         inkscape:connector-curvature="0"
         d="m 508.957,467.089 -41.868,41.868 c -4.057,4.057 -10.634,4.057 -14.691,0 L 316.262,372.822 c -4.057,-4.057 -4.057,-10.634 0,-14.691 l 41.868,-41.868 c 4.057,-4.057 10.634,-4.057 14.691,0 l 136.135,136.135 c 4.058,4.056 4.058,10.634 10e-4,14.691 z"
         id="path4875" />
      <path
         style="fill:#365e7d"
         inkscape:connector-curvature="0"
         d="M 508.957,467.089 497.449,478.597 346.623,327.77 358.131,316.262 c 4.057,-4.057 10.634,-4.057 14.691,0 l 136.135,136.135 c 4.057,4.057 4.057,10.635 0,14.692 z"
         id="path4877" />
      <circle
         style="fill:#407093"
         cx="159.976"
         cy="159.976"
         id="circle4879"
         r="159.976" />
      <path
         style="fill:#365e7d"
         inkscape:connector-curvature="0"
         d="m 256.72,32.57 c 20.433,26.867 32.57,60.386 32.57,96.744 0,88.352 -71.624,159.976 -159.976,159.976 -36.358,0 -69.877,-12.137 -96.744,-32.57 29.22,38.421 75.412,63.232 127.406,63.232 88.352,0 159.976,-71.624 159.976,-159.976 C 319.951,107.982 295.14,61.789 256.72,32.57 Z"
         id="path4881" />
      <circle
         style="fill:#e4f6ff"
         cx="159.976"
         cy="159.976"
         r="117.315"
         id="circle4883" />
      <path
         style="fill:#d3effb"
         inkscape:connector-curvature="0"
         d="m 230.821,66.467 c 14.938,19.685 23.807,44.228 23.807,70.845 0,64.792 -52.524,117.315 -117.315,117.315 -26.617,0 -51.16,-8.87 -70.845,-23.807 21.423,28.233 55.334,46.47 93.508,46.47 64.792,0 117.315,-52.524 117.315,-117.315 0,-38.174 -18.238,-72.084 -46.47,-93.508 z"
         id="path4885" />
    </g>
    <path
       inkscape:connector-curvature="0"
       id="path4905"
       d="m 249.11206,332.89354 28.15943,22.68075 36.50297,-57.19493"
       style="fill:none;stroke:#00ff26;stroke-width:25.07900429;stroke-linecap:round;stroke-linejoin:miter;stroke-miterlimit:4;stroke-dasharray:none;stroke-opacity:1" />
  </g>
</svg>
