<?xml version="1.0" encoding="UTF-8" standalone="no"?>
<svg
   xmlns:dc="http://purl.org/dc/elements/1.1/"
   xmlns:cc="http://creativecommons.org/ns#"
   xmlns:rdf="http://www.w3.org/1999/02/22-rdf-syntax-ns#"
   xmlns:svg="http://www.w3.org/2000/svg"
   xmlns="http://www.w3.org/2000/svg"
   xmlns:sodipodi="http://sodipodi.sourceforge.net/DTD/sodipodi-0.dtd"
   xmlns:inkscape="http://www.inkscape.org/namespaces/inkscape"
   id="Layer_1"
   enable-background="new 0 0 512 512"
   height="650.28925"
   viewBox="0 0 340.92111 650.28925"
   width="340.92111"
   version="1.1"
   sodipodi:docname="carrot.svg"
   inkscape:version="0.92.5 (0.92.5+68)">
  <metadata
     id="metadata32">
    <rdf:RDF>
      <cc:Work
         rdf:about="">
        <dc:format>image/svg+xml</dc:format>
        <dc:type
           rdf:resource="http://purl.org/dc/dcmitype/StillImage" />
        <dc:title></dc:title>
      </cc:Work>
    </rdf:RDF>
  </metadata>
  <defs
     id="defs30" />
  <sodipodi:namedview
     pagecolor="#ffffff"
     bordercolor="#666666"
     borderopacity="1"
     objecttolerance="10"
     gridtolerance="10"
     guidetolerance="10"
     inkscape:pageopacity="0"
     inkscape:pageshadow="2"
     inkscape:window-width="1366"
     inkscape:window-height="694"
     id="namedview28"
     showgrid="false"
     fit-margin-top="0"
     fit-margin-left="0"
     fit-margin-right="0"
     fit-margin-bottom="0"
     inkscape:zoom="0.65186406"
     inkscape:cx="142.99934"
     inkscape:cy="329.14857"
     inkscape:window-x="0"
     inkscape:window-y="21"
     inkscape:window-maximized="1"
     inkscape:current-layer="g4786" />
  <g
     id="g4786"
     transform="matrix(-0.71310175,-0.70106055,-0.70106055,0.71310175,523.32397,315.46107)">
    <path
       id="path12"
       d="m 241.6,132 c 6.4,-1.2 12.8,-1.9 19.3,-1.8 6.1,0 12.2,0.5 18.2,1.4 5.7,1.2 11.3,2.9 16.6,5.1 l 0.1,0.1 c -6.5,9.3 1.9,30.1 19.7,47.9 17.8,17.8 38.6,26.2 47.9,19.7 2.2,5.4 4,11 5.2,16.8 3.2,22.3 3,58.6 -27.1,79.9 -1.8,1.3 -3.7,2.5 -5.7,3.7 L 143.7,420.8 33.3,487.2 C 20.1,494.5 5.6,480 12.9,466.8 L 58.6,391.1 195.5,164.2 c 11.6,-19.8 28.9,-28.7 46.1,-32.2 z"
       inkscape:connector-curvature="0"
       style="fill:#ff9c31" />
    <path
       id="path14"
       d="m 145.6,419.5 6.4,-12.6 120.4,-236 c 4.8,-10.1 12.1,-18.8 21.3,-25.3 -0.3,-3.1 0.5,-6.2 2.2,-8.8 l -0.1,-0.1 c -5.4,-2.2 -11,-3.9 -16.6,-5.1 -6,-0.9 -12.1,-1.3 -18.2,-1.4 -6.5,0 -13,0.6 -19.3,1.8 -17.2,3.4 -34.5,12.4 -46,32.3 L 58.7,391.2 13,466.9 c -7.3,13.2 7.2,27.7 20.4,20.4 l 110.4,-66.6 z"
       inkscape:connector-curvature="0"
       style="fill:#ed8115" />
    <g
       id="g23"
       style="fill:#d87012">
      <path
         d="m 343,295.2 c -25.8,-6.4 -43.8,-19 -58.5,-40.8 0,0 0,-0.1 -0.1,-0.1 -1.9,-2.7 -5.6,-3.4 -8.3,-1.6 -2.7,1.9 -3.4,5.6 -1.6,8.3 15.4,22.9 34.1,36.7 60.1,44.3 l 1.2,-0.7 c 2,-1.2 3.9,-2.4 5.7,-3.7 1.7,-1.2 3.2,-2.4 4.7,-3.7 -0.7,-0.9 -1.8,-1.7 -3.2,-2 z"
         id="XMLID_12_"
         inkscape:connector-curvature="0" />
      <path
         d="m 254.2,197.3 c 1.1,1.1 2.6,1.7 4.2,1.7 1.6,0 3.2,-0.7 4.3,-1.8 2.3,-2.4 2.2,-6.2 -0.2,-8.5 -14.1,-13.5 -20.8,-37.6 -15.2,-54.8 v -0.1 c 0.3,-0.9 0.3,-1.8 0.2,-2.7 -2,0.3 -4,0.6 -5.9,1 -2.2,0.4 -4.5,1 -6.7,1.6 -5.1,21 2.8,47.7 19.3,63.6 z"
         id="XMLID_14_"
         inkscape:connector-curvature="0" />
      <path
         d="m 67.6,420.3 c 1.1,0.9 2.4,1.4 3.8,1.4 1.8,0 3.5,-0.8 4.6,-2.2 2.1,-2.6 1.7,-6.3 -0.8,-8.4 -7,-5.7 -10.3,-12 -10.5,-19.9 0,-2.1 -1.2,-4 -2.9,-5 l -3.1,5.1 -5,8.2 c 1.9,7.9 6.5,14.8 13.9,20.8 z"
         id="XMLID_16_"
         inkscape:connector-curvature="0" />
      <path
         d="m 143.9,414.6 c -9,-0.2 -17.9,-7.3 -22.8,-13.3 -2.1,-2.6 -5.9,-2.9 -8.4,-0.8 -2.6,2.1 -2.9,5.9 -0.8,8.4 5.4,6.6 14.1,13.7 24,16.5 l 7.9,-4.8 5.2,-3.1 c -1.1,-1.7 -3,-2.9 -5.1,-2.9 z"
         id="XMLID_18_"
         inkscape:connector-curvature="0" />
      <path
         d="m 209.8,289.5 c -13.6,-11.3 -23.9,-26.1 -29.9,-42.8 v -0.1 c -1.1,-3.1 -4.5,-4.8 -7.7,-3.6 -3.1,1.1 -4.8,4.5 -3.6,7.7 6.7,18.7 18.3,35.3 33.6,48 1.1,0.9 2.4,1.4 3.8,1.4 1.8,0 3.5,-0.8 4.6,-2.2 2.1,-2.5 1.8,-6.2 -0.8,-8.4 z"
         id="XMLID_19_"
         inkscape:connector-curvature="0" />
    </g>
    <g
       id="g4878">
      <path
         inkscape:transform-center-y="-34.60491"
         inkscape:transform-center-x="0.17401356"
         transform="matrix(-1.6223883,-1.5949931,-1.1251107,1.1444353,652.01632,-385.4325)"
         d="M 5.4237259,389.42373 -144.42415,389.15879 -69.270763,259.51919 Z"
         inkscape:randomized="0"
         inkscape:rounded="0"
         inkscape:flatsided="true"
         sodipodi:arg2="1.5725644"
         sodipodi:arg1="0.52536687"
         sodipodi:r2="43.257423"
         sodipodi:r1="86.514847"
         sodipodi:cy="346.03391"
         sodipodi:cx="-69.423729"
         sodipodi:sides="3"
         id="path4841"
         style="opacity:1;fill:#619329;fill-opacity:1;fill-rule:nonzero;stroke:none;stroke-width:10.18999958;stroke-linecap:round;stroke-linejoin:round;stroke-miterlimit:4;stroke-dasharray:none;stroke-dashoffset:0;stroke-opacity:1;paint-order:normal"
         sodipodi:type="star" />
      <path
         style="fill:#8ecc3e"
         inkscape:connector-curvature="0"
         d="m 400.7,22.8 -25.4,48.2 -0.3,0.6 12.2,5.7 -50.8,89 10,8.7 L 455,56.6 Z"
         id="path2" />
      <path
         style="fill:#74a534"
         inkscape:connector-curvature="0"
         d="M 411.3,29.4 400.7,22.8 375.3,71 375,71.6 386.4,76.9 Z"
         id="path4" />
      <path
         style="fill:#a6d63c"
         inkscape:connector-curvature="0"
         d="M 363.6,177.6 352,181.9 449.6,112 490,92.5 l 11,35.3 z"
         id="path6" />
      <path
         style="fill:#7eb239"
         inkscape:connector-curvature="0"
         d="M 490,92.5 449.6,112 352,181.9 391.3,167.6 493.1,102.3 Z"
         id="path8" />
      <path
         style="fill:#8ecc3e"
         inkscape:connector-curvature="0"
         d="m 329.4,156.6 4.4,-13 26.8,-78.8 -8.6,-4.1 -28.2,76.5 -4.4,12 c 1.1,9.1 10.2,21.1 20,27.7 -5.4,-6.5 -9.3,-14 -10,-20.3 z"
         id="path10" />
      <path
         style="fill:#ffb743"
         inkscape:connector-curvature="0"
         d="m 363.4,204.4 c -9.3,6.5 -30.1,-1.9 -47.9,-19.7 -17.8,-17.8 -26.2,-38.6 -19.7,-47.9 0.3,-0.5 0.7,-0.9 1.1,-1.3 5.2,-5.2 15.4,-4.1 26.8,1.8 l -4.4,12 c 1.6,13.1 19.6,32 32.6,32.6 l 11.6,-4.2 c 5.3,10.9 6.2,20.6 1.2,25.6 -0.3,0.4 -0.8,0.7 -1.3,1.1 z"
         id="path16" />
      <path
         style="fill:#a6d63c;fill-opacity:1"
         inkscape:connector-curvature="0"
         d="m 432.8,77.1 -6.8,-6.8 -89.6,96.1 50.8,-89 -12.2,-5.7 -23,-10.9 -32.6,88.5 c 1.6,13 19.6,32 32.6,32.6 l 97.6,-69.9 10.6,-7.6 z"
         id="path25" />
      <path
         style="fill:#8ecc3e;fill-opacity:1;stroke-width:0.96220541"
         inkscape:connector-curvature="0"
         d="m 355.49534,18.872196 -8.64304,-4.55746 -42.94226,112.622904 11.16113,-95.946867 -13.02348,-2.132556 -24.61131,-4.163682 4.82783,90.756475 C 288.65299,127.1237 311.91368,140.11741 323.7,137.3 l 60.06348,-90.337832 6.52006,-9.819092 z"
         id="path25-3" />
      <path
         style="fill:#619329"
         inkscape:connector-curvature="0"
         d="M 429.58518,85.11678 436.5,91.8 l -94.56034,91.22342 88.12205,-52.30815 5.90693,12.10117 11.29007,22.81106 -87.93205,34.10227 c -13.02536,-1.3784 -32.32912,-19.05225 -33.15041,-32.04015 l 68.22793,-98.77612 7.41839,-10.72788 z"
         id="path25-62" />
      <path
         style="fill:#7eb239;fill-opacity:1"
         inkscape:connector-curvature="0"
         d="m 478.7316,174.83331 1.22126,-9.53879 -130.83028,-12.11648 101.48344,-14.23904 -2.9516,-13.13843 -5.44258,-24.86339 -89.95702,28.33273 C 342.94802,138.48639 338.92412,164.34772 346.4,175 l 114.99405,34.46941 12.49575,3.73846 z"
         id="path25-6" />
      <path
         style="fill:#619329"
         inkscape:connector-curvature="0"
         d="m 409.1,64.5 -6.8,-6.8 -89.6,96.1 50.8,-89 -12.2,-5.7 -23,-10.9 -32.6,88.5 c 1.6,13 19.6,32 32.6,32.60001 L 425.9,99.4 436.5,91.8 Z"
         id="path25-35" />
    </g>
  </g>
</svg>
