<?xml version="1.0" encoding="UTF-8" standalone="no"?>
<!-- Created with Inkscape (http://www.inkscape.org/) -->

<svg
   xmlns:dc="http://purl.org/dc/elements/1.1/"
   xmlns:cc="http://creativecommons.org/ns#"
   xmlns:rdf="http://www.w3.org/1999/02/22-rdf-syntax-ns#"
   xmlns:svg="http://www.w3.org/2000/svg"
   xmlns="http://www.w3.org/2000/svg"
   xmlns:sodipodi="http://sodipodi.sourceforge.net/DTD/sodipodi-0.dtd"
   xmlns:inkscape="http://www.inkscape.org/namespaces/inkscape"
   width="24mm"
   height="24mm"
   viewBox="0 0 24 24"
   version="1.1"
   id="svg8361"
   inkscape:version="0.92.5 (0.92.5+68)"
   sodipodi:docname="flower.svg">
  <defs
     id="defs8355" />
  <sodipodi:namedview
     id="base"
     pagecolor="#ffffff"
     bordercolor="#666666"
     borderopacity="1.0"
     inkscape:pageopacity="0.0"
     inkscape:pageshadow="2"
     inkscape:zoom="0.35"
     inkscape:cx="-208.7031"
     inkscape:cy="317.39071"
     inkscape:document-units="mm"
     inkscape:current-layer="layer1"
     showgrid="false"
     fit-margin-top="0"
     fit-margin-left="0"
     fit-margin-right="0"
     fit-margin-bottom="0"
     inkscape:window-width="1366"
     inkscape:window-height="694"
     inkscape:window-x="0"
     inkscape:window-y="21"
     inkscape:window-maximized="1" />
  <metadata
     id="metadata8358">
    <rdf:RDF>
      <cc:Work
         rdf:about="">
        <dc:format>image/svg+xml</dc:format>
        <dc:type
           rdf:resource="http://purl.org/dc/dcmitype/StillImage" />
        <dc:title></dc:title>
      </cc:Work>
    </rdf:RDF>
  </metadata>
  <g
     inkscape:label="Layer 1"
     inkscape:groupmode="layer"
     id="layer1"
     transform="translate(-66.180672,-208.80963)">
    <g
       id="g303"
       transform="matrix(0.16500412,0,0,0.16741909,0.17296404,179.85747)">
      <path
         d="m 464.99,229.18 c 0,0 -7.838,-17.733 -8.661,-31.758 -0.824,-14.024 6.188,-21.861 9.075,-23.098 2.887,-1.237 4.123,0.824 5.773,-0.825 1.65,-1.649 3.712,0.825 3.712,0.825 0,0 2.062,-1.236 4.537,0.825 2.475,2.061 9.897,14.436 7.837,24.334 -2.062,9.898 -8.249,28.872 -8.249,28.872 0,0 -4.124,3.3 -14.024,0.825 z"
         id="path283"
         inkscape:connector-curvature="0"
         style="fill:#ef8320" />
      <path
         d="m 478.292,229.183 c 0,0 7.13,-18.03 16.54,-28.461 9.41,-10.431 19.913,-10.937 22.822,-9.75 2.908,1.188 2.307,3.515 4.64,3.532 2.333,0.021 2.018,3.224 2.018,3.224 0,0 2.329,0.602 2.599,3.811 0.268,3.209 -3.336,17.182 -11.833,22.663 -8.498,5.479 -26.354,14.393 -26.354,14.393 0,0 -5.246,-0.625 -10.432,-9.412 z"
         id="path285"
         inkscape:connector-curvature="0"
         style="fill:#f49f1f" />
      <path
         d="m 489.17,238.961 c 0,0 17.659,-8.006 31.675,-8.963 14.015,-0.958 21.917,5.979 23.185,8.854 1.265,2.876 -0.786,4.132 0.879,5.766 1.664,1.636 -0.79,3.721 -0.79,3.721 0,0 1.257,2.05 -0.78,4.546 -2.039,2.492 -14.343,10.033 -24.261,8.066 -9.917,-1.97 -28.95,-7.974 -28.95,-7.974 0,0 -3.339,-4.096 -0.958,-14.016 z"
         id="path287"
         inkscape:connector-curvature="0"
         style="fill:#ef8320" />
      <path
         d="m 490.211,250.849 c 0,0 17.863,7.543 28.074,17.188 10.213,9.647 10.479,20.161 9.225,23.04 -1.254,2.881 -3.568,2.228 -3.638,4.559 -0.073,2.333 -3.271,1.943 -3.271,1.943 0,0 -0.653,2.314 -3.869,2.51 -3.214,0.195 -17.101,-3.729 -22.385,-12.349 -5.281,-8.623 -13.783,-26.679 -13.783,-26.679 0,0 0.746,-5.23 9.647,-10.212 z"
         id="path289"
         inkscape:connector-curvature="0"
         style="fill:#f49f1f" />
      <path
         d="m 480.75,260.219 c 0,0 7.434,17.907 7.941,31.946 0.506,14.039 -6.682,21.716 -9.594,22.888 -2.915,1.172 -4.105,-0.917 -5.79,0.694 -1.689,1.611 -3.695,-0.909 -3.695,-0.909 0,0 -2.089,1.189 -4.517,-0.927 -2.427,-2.116 -9.568,-14.656 -7.284,-24.506 2.288,-9.85 8.898,-28.68 8.898,-28.68 0,0 4.203,-3.204 14.041,-0.506 z"
         id="path291"
         inkscape:connector-curvature="0"
         style="fill:#ef8320" />
      <path
         d="m 466.373,261.789 c 0,0 -6.582,18.239 -15.673,28.948 -9.091,10.71 -19.573,11.534 -22.516,10.438 -2.943,-1.102 -2.414,-3.445 -4.743,-3.393 -2.334,0.051 -2.117,-3.162 -2.117,-3.162 0,0 -2.346,-0.529 -2.711,-3.729 -0.366,-3.2 2.814,-17.276 11.141,-23.012 8.331,-5.73 25.908,-15.183 25.908,-15.183 0,0 5.264,0.468 10.711,9.093 z"
         id="path293"
         inkscape:connector-curvature="0"
         style="fill:#f49f1f" />
      <path
         d="m 456.442,251.957 c 0,0 -17.549,8.244 -31.55,9.391 -14.001,1.147 -21.996,-5.682 -23.302,-8.538 -1.304,-2.858 0.729,-4.144 -0.957,-5.753 -1.686,-1.613 0.739,-3.732 0.739,-3.732 0,0 -1.285,-2.032 0.719,-4.554 2.004,-2.522 14.205,-10.229 24.148,-8.396 9.943,1.837 29.057,7.58 29.057,7.58 0,0 3.393,4.051 1.146,14.002 z"
         id="path295"
         inkscape:connector-curvature="0"
         style="fill:#ef8320" />
      <path
         d="m 456.455,238.945 c 0,0 -18.193,-6.703 -28.844,-15.862 -10.648,-9.162 -11.404,-19.651 -10.287,-22.585 1.119,-2.936 3.462,-2.394 3.422,-4.722 -0.035,-2.334 3.177,-2.097 3.177,-2.097 0,0 0.544,-2.342 3.746,-2.685 3.202,-0.346 17.257,2.926 22.937,11.292 5.679,8.367 15.014,26.006 15.014,26.006 0,0 -0.503,5.26 -9.165,10.653 z"
         id="path297"
         inkscape:connector-curvature="0"
         style="fill:#f49f1f" />
      <circle
         cx="471.591"
         cy="244.854"
         r="19.798"
         id="circle299"
         style="fill:#ffcf09;stroke:#ffffff" />
      <circle
         cx="472.20901"
         cy="244.854"
         r="14.23"
         id="circle301"
         style="fill:#ffe36b" />
    </g>
  </g>
</svg>
