<?xml version="1.0" encoding="UTF-8" standalone="no"?>
<svg
   xmlns:dc="http://purl.org/dc/elements/1.1/"
   xmlns:cc="http://creativecommons.org/ns#"
   xmlns:rdf="http://www.w3.org/1999/02/22-rdf-syntax-ns#"
   xmlns:svg="http://www.w3.org/2000/svg"
   xmlns="http://www.w3.org/2000/svg"
   xmlns:sodipodi="http://sodipodi.sourceforge.net/DTD/sodipodi-0.dtd"
   xmlns:inkscape="http://www.inkscape.org/namespaces/inkscape"
   id="Flat"
   height="464"
   viewBox="0 0 583.69037 464"
   width="583.69037"
   version="1.1"
   sodipodi:docname="fruits.svg"
   inkscape:version="0.92.5 (0.92.5+68)">
  <metadata
     id="metadata69">
    <rdf:RDF>
      <cc:Work
         rdf:about="">
        <dc:format>image/svg+xml</dc:format>
        <dc:type
           rdf:resource="http://purl.org/dc/dcmitype/StillImage" />
        <dc:title></dc:title>
      </cc:Work>
    </rdf:RDF>
  </metadata>
  <defs
     id="defs67" />
  <sodipodi:namedview
     pagecolor="#ffffff"
     bordercolor="#666666"
     borderopacity="1"
     objecttolerance="10"
     gridtolerance="10"
     guidetolerance="10"
     inkscape:pageopacity="0"
     inkscape:pageshadow="2"
     inkscape:window-width="1366"
     inkscape:window-height="694"
     id="namedview65"
     showgrid="false"
     fit-margin-top="0"
     fit-margin-left="0"
     fit-margin-right="0"
     fit-margin-bottom="0"
     inkscape:zoom="0.4609375"
     inkscape:cx="245.49445"
     inkscape:cy="304.97983"
     inkscape:window-x="0"
     inkscape:window-y="21"
     inkscape:window-maximized="1"
     inkscape:current-layer="Flat" />
  <g
     id="g4570">
    <g
       transform="matrix(0.43837148,0,0,0.38619969,-23.183331,86.8205)"
       id="g4243">
      <path
         style="fill:#fad44c"
         inkscape:connector-curvature="0"
         d="M 430.04,399.17 C 451.71,333.09 462,265.13 443.78,195.33 431.35,147.74 389.83,96.64 338.95,82.68 l -0.01,0.01 c 0,0 -28.389,-6.5 -57.2,-4.54 -29.317,1.99 -59.092,12.44 -61.856,13.56 -65.59,26.62 -105.34,119.21 -79.12,212.51 C 172.3,416.45 251.3,480.5 322.51,496.47 c 51.17,11.48 114.41,-0.08 123.73,-20.91 11.55,-25.83 -34.45,-20.76 -16.2,-76.39 z"
         id="path4206" />
      <path
         style="fill:#5d8430"
         inkscape:connector-curvature="0"
         d="m 338.94,82.69 c 35.63,36.24 18.94,102.07 18.94,102.07 l -6.5,28.39 -9.73,-22.52 C 348.24,125.44 292.39,89.79 269.81,78.15 264.17,75.24 260.6,73.83 260.6,73.83 l -26.95,-5.82 c -0.67,-1.96 -1.39,-3.94 -2.15,-5.91 l 25.64,0.13 29.43,-2.09 c 24.3,2.42 41.02,10.97 52.37,22.55 z"
         id="path4208" />
      <path
         style="fill:#4e6b28"
         inkscape:connector-curvature="0"
         d="M 338.94,82.69 C 327.59,71.11 310.87,62.56 286.57,60.14 l -7.87,0.56 c 21.329,3.095 36.377,11.183 46.842,21.861 35.63,36.24 18.94,102.07 18.94,102.07 l -1.88,8.21 8.775,20.31 6.5,-28.39 c 0,0 16.693,-65.831 -18.937,-102.071 z"
         id="path4210" />
      <path
         style="fill:#5d8430"
         inkscape:connector-curvature="0"
         d="m 229.58,57.29 -47.65,19.19 c 0,0 -114.77,93.53 -68.29,209.27 l -4.72,37.06 -21.52,-38.78 c 0,0 -90.94,-155.42 51.67,-212.47 l 43.95,-9.38 42.97,-13.05 c 1.24,2.68 2.44,5.41 3.59,8.16 z"
         id="path4212" />
      <path
         style="fill:#4e6b28"
         inkscape:connector-curvature="0"
         d="m 107.4,284.03 c 0,0 -90.94,-155.42 51.67,-212.47 l 43.95,-9.38 25.355,-7.7 c -0.779,-1.8 -1.569,-3.587 -2.385,-5.35 l -42.97,13.05 -43.95,9.38 C -3.54,128.61 87.4,284.03 87.4,284.03 l 21.52,38.78 3.733,-29.313 z"
         id="path4214" />
      <path
         style="fill:#f5b142"
         inkscape:connector-curvature="0"
         d="M 429.029,402.433 C 361.114,390.94 284.729,341.543 239.29,247.187 212.98,192.55 212.155,133.696 229.912,88.077 c -3.53,1.157 -6.913,2.37 -10.032,3.633 -65.59,26.62 -105.34,119.21 -79.12,212.51 31.54,112.23 110.54,176.28 181.75,192.25 51.17,11.48 114.41,-0.08 123.73,-20.91 11.319,-25.312 -32.621,-20.96 -17.211,-73.127 z"
         id="path4216" />
      <g
         style="fill:#151515"
         id="g4224">
        <path
           inkscape:connector-curvature="0"
           d="m 82.187,286.993 21.482,38.73 a 6,6 0 0 0 11.2,-2.152 l 4.722,-37.062 a 6,6 0 0 0 -0.383,-2.994 143.273,143.273 0 0 1 -8.621,-78.095 c 3.575,-21.371 11.893,-43 24.722,-64.3 a 259.12,259.12 0 0 1 49.749,-59.433 l 41.178,-16.579 q 0.873,2.3 1.66,4.593 c 0.03,0.1 0.069,0.206 0.1,0.308 a 107.7,107.7 0 0 1 3.237,11.343 c -4.687,1.456 -9.326,3.059 -13.617,4.8 -33.476,13.588 -61.658,44.434 -77.317,84.629 -16.21,41.608 -18.1,89.573 -5.315,135.061 14.893,53 41.715,99.637 77.565,134.878 31.653,31.114 70.238,52.993 108.649,61.606 a 205.051,205.051 0 0 0 44.322,4.687 209.387,209.387 0 0 0 35.572,-2.973 c 36.771,-6.386 47.5,-19.053 50.623,-26.036 6.451,-14.423 -1.47,-22.715 -7.834,-29.379 -8.694,-9.1 -17.683,-18.514 -8.147,-47.585 25.81,-78.684 30.209,-144.53 13.844,-207.222 C 437.535,147.675 396.821,93.151 342.067,77.335 328.631,64.255 310.235,56.471 287.167,54.172 a 5.982,5.982 0 0 0 -1.019,-0.014 l -29.209,2.069 -21.349,-0.1 q -0.2,-0.491 -0.4,-0.979 c -0.012,-0.031 -0.021,-0.064 -0.033,-0.1 -0.012,-0.036 -0.036,-0.072 -0.052,-0.11 -9.9,-23.855 -24.04,-45.9 -24.878,-47.193 a 6,6 0 1 0 -10.081,6.508 350.188,350.188 0 0 1 17.434,31.165 l -36.063,10.943 -43.7,9.335 a 5.928,5.928 0 0 0 -0.975,0.3 c -39.9,15.962 -65.948,40.99 -77.4,74.389 -9.575,27.916 -8.648,62.168 2.681,99.054 a 246.3,246.3 0 0 0 20.064,47.554 z M 286.479,66.164 c 24.8,2.575 43.2,12.18 54.7,28.551 24.153,34.384 11.019,88.042 10.885,88.576 -0.011,0.044 -0.023,0.089 -0.033,0.133 l -2.414,10.537 -1.858,-4.3 c 3.009,-34.7 -10.647,-66.642 -39.559,-92.462 A 168.814,168.814 0 0 0 262.8,68.25 6.171,6.171 0 0 0 261.86,67.965 l -0.206,-0.044 z m -39.595,10.844 q -2.011,0.5 -4.093,1.048 -0.234,-1.014 -0.493,-2.039 z m 21.98,7.429 a 162.19,162.19 0 0 1 31.346,21.714 c 26.743,23.883 38.676,52.1 35.466,83.879 a 6.006,6.006 0 0 0 0.462,2.983 l 9.733,22.521 a 6,6 0 0 0 5.5,3.619 c 0.183,0 0.366,-0.008 0.55,-0.025 a 6,6 0 0 0 5.3,-4.634 l 6.491,-28.33 a 164.285,164.285 0 0 0 4.048,-34.1 c 0.37,-22.039 -3.821,-41.45 -12.154,-56.761 16.335,7.745 31.882,19.634 45.7,35.094 17.59,19.683 30.609,43.285 36.658,66.456 15.764,60.358 11.436,124.047 -13.629,200.447 -11.776,35.9 1.853,50.171 10.872,59.613 6.623,6.934 8.574,9.449 5.558,16.192 -3.5,7.815 -19.872,15.318 -41.723,19.112 -24.383,4.235 -51.8,3.651 -75.214,-1.6 -36.255,-8.13 -72.786,-28.889 -102.863,-58.455 -34.361,-33.776 -60.1,-78.58 -74.424,-129.566 -12.083,-43 -10.328,-88.262 4.943,-127.459 14.467,-37.133 40.218,-65.513 70.65,-77.866 16.159,-6.559 37.887,-11.13 46.73,-12.834 z M 70.808,144.228 c 10.235,-29.792 33.795,-52.3 70.023,-66.905 l 43.44,-9.279 q 0.248,-0.052 0.489,-0.126 l 9.609,-2.918 -14.68,5.91 a 6.025,6.025 0 0 0 -1.55,0.915 c -1.2,0.982 -29.764,24.481 -52.917,62.781 C 94.575,185.3 88.457,237.794 107.492,286.524 L 105.279,303.886 92.65,281.117 92.583,281 A 238.472,238.472 0 0 1 73.5,235.624 c -7.32,-23.957 -13.733,-59.26 -2.692,-91.396 z"
           id="path4218" />
        <path
           inkscape:connector-curvature="0"
           d="m 191.007,338.832 a 300.559,300.559 0 0 1 -14.534,-35.043 326.416,326.416 0 0 1 -10.7,-39.077 6.000192,6.000192 0 0 0 -11.747,2.453 338.314,338.314 0 0 0 11.1,40.518 312.353,312.353 0 0 0 15.118,36.447 c 3.037,6.173 6.313,12.283 9.735,18.162 a 6.0003143,6.0003143 0 0 0 10.371,-6.038 c -3.286,-5.638 -6.428,-11.5 -9.343,-17.422 z"
           id="path4220" />
        <path
           inkscape:connector-curvature="0"
           d="m 209.737,381.88 a 6,6 0 0 0 -1.178,8.4 c 4.961,6.58 10.249,12.968 15.716,18.987 a 6.0000065,6.0000065 0 0 0 8.883,-8.068 c -5.223,-5.75 -10.276,-11.854 -15.018,-18.143 a 6,6 0 0 0 -8.403,-1.176 z"
           id="path4222" />
      </g>
    </g>
    <g
       transform="matrix(0.50636021,0,0,0.48889951,310.42577,82.03902)"
       id="g4457">
      <path
         style="fill:#ff5a35"
         inkscape:connector-curvature="0"
         d="M 294.5,0 V 405 C 406.338,405 497,314.338 497,202.5 497,90.662 406.338,0 294.5,0 Z"
         id="path4413" />
      <path
         style="fill:#ff7a3c"
         inkscape:connector-curvature="0"
         d="M 467,202.5 C 467,90.662 389.769,0 294.5,0 182.662,0 92,90.662 92,202.5 92,314.338 182.662,405 294.5,405 389.769,405 467,314.338 467,202.5 Z"
         id="path4415" />
      <circle
         style="fill:#ff9f45"
         cx="202.5"
         cy="294.5"
         r="202.5"
         id="circle4417" />
      <circle
         style="fill:#ffe8c2"
         cx="202.5"
         cy="294.5"
         r="172.5"
         id="circle4419" />
      <path
         style="fill:#ff5a35"
         inkscape:connector-curvature="0"
         d="m 241.086,157.309 c -12.792,-3.615 -25.764,-5.343 -38.585,-5.338 v 118.332 c 5.65,0 11.3,-3.087 13.857,-9.26 h 34.598 v -83.527 c 3.451,-8.332 -1.191,-17.754 -9.87,-20.207 z"
         id="path4421" />
      <path
         style="fill:#ff9f45"
         inkscape:connector-curvature="0"
         d="m 202.229,151.967 c 0.091,0 0.181,0.004 0.272,0.004 -0.09,0 -0.181,-0.005 -0.272,-0.004 z"
         id="path4423" />
      <path
         style="fill:#ff9f45"
         inkscape:connector-curvature="0"
         d=""
         id="path4425" />
      <path
         style="fill:#ff7a3c"
         inkscape:connector-curvature="0"
         d="m 217.749,157.309 c -5.055,-3.615 -10.181,-5.343 -15.248,-5.338 -0.091,0 -0.181,-0.004 -0.272,-0.004 -13.081,0.03 -26.003,1.869 -38.414,5.378 -8.638,2.443 -13.203,11.887 -9.768,20.18 v 83.518 h 34.594 c 2.557,6.173 8.208,9.26 13.859,9.26 2.233,0 4.466,-3.087 5.477,-9.26 l 13.673,-83.527 c 1.364,-8.332 -0.471,-17.754 -3.901,-20.207 z"
         id="path4427" />
      <path
         style="fill:#ff5a35"
         inkscape:connector-curvature="0"
         d="m 132.776,170.207 c -11.602,6.489 -21.996,14.439 -31.059,23.509 l 83.673,83.674 c 3.995,-3.996 5.808,-10.173 3.251,-16.346 l -34.598,-83.527 c -3.45,-8.333 -13.396,-11.712 -21.267,-7.31 z"
         id="path4429" />
      <path
         style="fill:#ff7a3c"
         inkscape:connector-curvature="0"
         d="m 116.274,186.709 c -6.131,1.018 -10.978,3.421 -14.557,7.007 -0.064,0.064 -0.131,0.125 -0.195,0.19 -9.228,9.271 -17.066,19.708 -23.36,30.965 -4.381,7.835 -0.93,17.741 7.363,21.177 l 59.056,59.056 24.462,-24.462 c 6.173,2.557 12.352,0.744 16.347,-3.252 1.579,-1.58 0.975,-5.341 -2.675,-10.42 L 133.32,198.239 c -4.926,-6.856 -12.886,-12.221 -17.046,-11.53 z"
         id="path4431" />
      <path
         style="fill:#ff5a35"
         inkscape:connector-curvature="0"
         d="m 65.309,255.914 c -3.615,12.792 -5.343,25.764 -5.338,38.585 h 118.332 c 0,-5.65 -3.087,-11.3 -9.26,-13.857 L 85.516,246.044 c -8.332,-3.451 -17.754,1.191 -20.207,9.87 z"
         id="path4433" />
      <path
         style="fill:#ff7a3c"
         inkscape:connector-curvature="0"
         d="m 65.309,279.251 c -3.615,5.055 -5.343,10.181 -5.338,15.248 0,0.091 -0.004,0.181 -0.004,0.272 0.03,13.081 1.869,26.003 5.378,38.414 2.443,8.638 11.887,13.203 20.18,9.768 h 83.518 v -34.594 c 6.173,-2.557 9.26,-8.208 9.26,-13.859 0,-2.233 -3.087,-4.466 -9.26,-5.477 L 85.516,275.35 c -8.332,-1.364 -17.754,0.471 -20.207,3.901 z"
         id="path4435" />
      <path
         style="fill:#ff5a35"
         inkscape:connector-curvature="0"
         d="m 78.207,364.224 c 6.489,11.602 14.439,21.996 23.509,31.059 L 185.39,311.61 c -3.996,-3.995 -10.173,-5.808 -16.346,-3.251 l -83.527,34.598 c -8.333,3.45 -11.712,13.396 -7.31,21.267 z"
         id="path4437" />
      <path
         style="fill:#ff7a3c"
         inkscape:connector-curvature="0"
         d="m 94.709,380.726 c 1.018,6.131 3.421,10.978 7.007,14.557 0.064,0.064 0.125,0.131 0.19,0.195 9.271,9.228 19.708,17.066 30.965,23.36 7.835,4.381 17.741,0.931 21.177,-7.363 l 59.056,-59.056 -24.462,-24.462 c 2.557,-6.173 0.744,-12.352 -3.252,-16.347 -1.58,-1.579 -5.341,-0.975 -10.42,2.675 l -68.731,49.395 c -6.856,4.926 -12.221,12.886 -11.53,17.046 z"
         id="path4439" />
      <path
         style="fill:#ff5a35"
         inkscape:connector-curvature="0"
         d="m 163.914,431.691 c 12.792,3.615 25.764,5.343 38.585,5.338 V 318.697 c -5.65,0 -11.3,3.087 -13.857,9.26 l -34.598,83.527 c -3.451,8.332 1.191,17.754 9.87,20.207 z"
         id="path4441" />
      <path
         style="fill:#ff7a3c"
         inkscape:connector-curvature="0"
         d="m 187.251,431.691 c 5.055,3.615 10.181,5.343 15.248,5.338 0.091,0 0.181,0.004 0.272,0.004 13.081,-0.03 26.003,-1.869 38.414,-5.378 8.638,-2.443 13.203,-11.887 9.768,-20.18 v -83.518 h -34.594 c -2.557,-6.173 -8.208,-9.26 -13.859,-9.26 -2.233,0 -4.466,3.087 -5.477,9.26 l -13.673,83.527 c -1.364,8.332 0.471,17.754 3.901,20.207 z"
         id="path4443" />
      <path
         style="fill:#ff5a35"
         inkscape:connector-curvature="0"
         d="m 272.224,418.793 c 11.602,-6.489 21.996,-14.439 31.059,-23.509 L 219.61,311.61 c -3.995,3.996 -5.808,10.173 -3.251,16.346 l 34.598,83.527 c 3.45,8.333 13.396,11.712 21.267,7.31 z"
         id="path4445" />
      <path
         style="fill:#ff7a3c"
         inkscape:connector-curvature="0"
         d="m 288.726,402.291 c 6.131,-1.018 10.978,-3.421 14.557,-7.007 0.064,-0.064 0.131,-0.125 0.195,-0.19 9.228,-9.271 17.066,-19.708 23.36,-30.965 4.381,-7.835 0.931,-17.741 -7.363,-21.177 l -59.056,-59.056 -24.462,24.462 c -6.173,-2.557 -12.352,-0.744 -16.347,3.252 -1.579,1.58 -0.975,5.341 2.675,10.42 l 49.395,68.731 c 4.926,6.856 12.886,12.221 17.046,11.53 z"
         id="path4447" />
      <path
         style="fill:#ff5a35"
         inkscape:connector-curvature="0"
         d="m 339.691,333.086 c 3.615,-12.792 5.343,-25.764 5.338,-38.585 H 226.697 c 0,5.65 3.087,11.3 9.26,13.857 l 83.527,34.598 c 8.332,3.452 17.754,-1.191 20.207,-9.87 z"
         id="path4449" />
      <path
         style="fill:#ff7a3c"
         inkscape:connector-curvature="0"
         d="m 339.691,309.749 c 3.615,-5.055 5.343,-10.181 5.338,-15.248 0,-0.091 0.004,-0.181 0.004,-0.272 -0.03,-13.081 -1.869,-26.003 -5.378,-38.414 -2.443,-8.638 -11.887,-13.203 -20.18,-9.768 h -83.518 v 34.594 c -6.173,2.557 -9.26,8.208 -9.26,13.859 0,2.233 3.087,4.466 9.26,5.477 l 83.527,13.673 c 8.332,1.364 17.754,-0.471 20.207,-3.901 z"
         id="path4451" />
      <path
         style="fill:#ff5a35"
         inkscape:connector-curvature="0"
         d="M 326.793,224.776 C 320.304,213.174 312.354,202.78 303.284,193.717 L 219.61,277.39 c 3.996,3.995 10.173,5.808 16.346,3.251 l 83.527,-34.598 c 8.333,-3.45 11.712,-13.396 7.31,-21.267 z"
         id="path4453" />
      <path
         style="fill:#ff7a3c"
         inkscape:connector-curvature="0"
         d="m 310.291,208.274 c -1.018,-6.131 -3.421,-10.978 -7.007,-14.557 -0.064,-0.064 -0.125,-0.131 -0.19,-0.195 -9.271,-9.228 -19.708,-17.066 -30.965,-23.36 -7.835,-4.381 -17.741,-0.93 -21.177,7.363 l -34.594,83.518 c -2.557,6.173 -0.744,12.352 3.252,16.347 1.58,1.579 5.341,0.975 10.42,-2.675 l 68.731,-49.395 c 6.856,-4.926 12.221,-12.886 11.53,-17.046 z"
         id="path4455" />
    </g>
    <g
       transform="matrix(0.60355287,0,0,0.58913475,281.30893,178.50137)"
       id="g4158">
      <path
         style="fill:#706a37"
         inkscape:connector-curvature="0"
         d="m 51.26,299.28 -3.95,22.27 -20.12,14.41 c -7.4,-5.47 -16.06,-12.13 -16.19,-16.5 -0.22,-7.36 8.97,-19.14 8.97,-19.14 6.13,-3.49 22.42,-0.62 31.29,-1.04 z"
         id="path4109" />
      <path
         style="fill:#fff27d"
         inkscape:connector-curvature="0"
         d="m 401.391,116.429 6.7,-13.51 c 11.16,3.95 21.6,5.06 28.3,8.58 37.83,19.8 63.86,79.77 64.55,115.63 1.77,92.26 -35.53,158.02 -80.89,200.07 -17.22,15.96 -47.86,39.58 -97.27,42.67 -2.42,0.15 -5.51,0.49 -8.83,0.82 l 10.17,-26.45 -15.14,-18.98 c 9.97,-13.27 23.98,-28.1 34.28,-42.06 25.63,-22.8 47.36,-54.42 61.65,-98.69 11.93,-36.96 17.91,-104.8 -7.48,-140.61 -4.49,-6.35 -13.54,-12.24 -21.91,-21.06 l 23.96,-2.56 z"
         id="path4111" />
      <path
         style="fill:#ffe33b"
         inkscape:connector-curvature="0"
         d="m 500.942,227.13 c -0.691,-35.861 -26.721,-95.831 -64.551,-115.631 -6.7,-3.52 -17.14,-4.63 -28.3,-8.58 l -6.7,13.51 -1.909,3.85 -0.063,0.007 c 22.448,25.617 37.567,62.354 39.372,87.684 6.553,92.044 -27.286,159.65 -70.4,204 C 358.63,422 344.249,435 323.807,445.058 l -9.855,25.632 c 3.319,-0.331 6.41,-0.671 8.83,-0.821 49.41,-3.09 80.05,-26.71 97.269,-42.669 45.361,-42.051 82.66,-107.81 80.891,-200.07 z"
         id="path4113" />
      <path
         style="fill:#fff27d"
         inkscape:connector-curvature="0"
         d="m 143.1,391.229 -9.76,-18.16 c 18.84,-8.86 54.85,-21.82 69.33,-26.78 56.09,-19.21 104.56,-86 118.02,-142.83 3.45,-14.58 7.37,-27.97 21.61,-69.29 a 20.9,20.9 0 0 0 1.01,-4.62 l 16.16,5.25 16.04,-11.96 h 0.01 c 8.37,8.82 17.42,14.71 21.91,21.06 25.39,35.81 19.41,103.65 7.48,140.61 -14.29,44.27 -36.02,75.89 -61.65,98.69 -26.86,23.89 -58,38.12 -89.37,47.1 -23.28,6.67 -78.15,10.16 -128.84,-9.78 z"
         id="path4115" />
      <path
         style="fill:#f9d438"
         inkscape:connector-curvature="0"
         d="m 397.431,143.9 c -4.489,-6.35 -13.54,-12.24 -21.91,-21.06 h -0.01 l -10.722,8 c 11.83,38.109 3.027,91.233 -8.821,121.959 -16.735,43.405 -40.194,73.764 -67.055,95.1 -28.15,22.356 -60.035,34.828 -91.857,42.045 -11.822,2.684 -31.505,4.131 -54.426,2.054 l -17.579,28.526 c 50.691,19.94 105.561,16.45 128.84,9.78 31.37,-8.979 62.511,-23.21 89.37,-47.1 25.63,-22.8 47.361,-54.421 61.651,-98.69 11.929,-36.965 17.91,-104.805 -7.481,-140.614 z"
         id="path4117" />
      <path
         style="fill:#f8ee4f"
         inkscape:connector-curvature="0"
         d="m 47.311,321.549 3.95,-22.27 a 19.553,19.553 0 0 0 2.79,-0.3 c 16.29,-3.12 54.9,-6.56 73.23,-8.37 45.98,-4.53 120.49,-50.58 147.47,-100.36 6.92,-12.77 11.59,-26.21 35.38,-61.26 a 18.959,18.959 0 0 0 2.08,-4.09 l 28.81,4.55 2.24,0.08 0.05,0.02 a 20.9,20.9 0 0 1 -1.01,4.62 c -14.24,41.32 -18.16,54.71 -21.61,69.29 -13.46,56.83 -61.93,123.62 -118.02,142.83 -14.48,4.96 -50.49,17.92 -69.33,26.78 -4.29,2.02 -13.05,3.35 -20.74,5.26 -20.54,-4.11 -51.87,-15.88 -78.32,-37.04 -1.89,-1.51 -4.41,-3.34 -7.09,-5.33 z"
         id="path4119" />
      <path
         style="fill:#fffac1"
         inkscape:connector-curvature="0"
         d="m 312.211,124.9 c -0.539,1.46 -30.539,52.58 -37.459,65.351 -26.981,49.779 -101.49,95.829 -147.471,100.359 -18.33,1.81 -56.939,5.25 -73.23,8.37 a 19.394,19.394 0 0 1 -2.789,0.3 l -3.951,22.27 c 0,0 52.07,12.792 92.416,2.886 44.87,-11.018 120.49,-50.581 147.47,-100.36 6.92,-12.77 44.6,-96.082 44.6,-96.082 z"
         id="path4121" />
      <path
         style="fill:#7f7841"
         inkscape:connector-curvature="0"
         d="m 308.981,425.259 15.14,18.98 -10.17,26.45 c -9.16,0.92 -20.05,1.81 -23.08,-1.34 -5.11,-5.3 -6.23,-20.19 -6.23,-20.19 2.45,-7.5 19.62,-17.63 24.34,-23.9 z"
         id="path4123" />
      <path
         style="fill:#706a37"
         inkscape:connector-curvature="0"
         d="m 375.521,122.839 h -0.01 l -16.04,11.96 -16.16,-5.25 c 2.01,-17.99 -15.16,-42.52 -15.16,-42.52 l 0.03,-13.14 c 0,0 -10.81,-16.21 -3.57,-29.37 a 4.32,4.32 0 0 1 3.53,-1.92 c 0,-0.01 0.01,0 0.01,0 7.16,-0.89 21.48,5.46 21.48,5.46 0.64,0.69 1.24,1.36 1.79,2.03 9.29,11.29 5.66,19.97 5.87,28.15 0.54,21.51 8.97,34.85 18.23,44.6 z"
         id="path4125" />
      <path
         style="fill:#8c8448"
         inkscape:connector-curvature="0"
         d="m 328.151,87.029 c 0,0 17.17,24.53 15.16,42.52 l -0.05,-0.02 -2.24,-0.08 -28.81,-4.55 c 6.06,-16.35 -5.98,-43.86 -5.98,-43.86 l 5.94,-12.15 c 0,0 -6.02,-17.97 4.1,-28.44 l 11.87,2.15 a 4.32,4.32 0 0 0 -3.53,1.92 c -7.24,13.16 3.57,29.37 3.57,29.37 z"
         id="path4127" />
      <path
         style="fill:#ffe33b"
         inkscape:connector-curvature="0"
         d="m 143.638,397.233 c -0.373,0 -0.594,0 -0.655,0 a 6.0011701,6.0011701 0 0 1 0.237,-12 150.583,150.583 0 0 0 28.854,-3.233 6.0002713,6.0002713 0 1 1 2.356,11.767 165.131,165.131 0 0 1 -30.792,3.466 z"
         id="path4129" />
      <path
         style="fill:#f9d438"
         inkscape:connector-curvature="0"
         d="m 455.605,171.711 a 6,6 0 0 1 -5.421,-3.423 c -16.7,-35.089 -31.873,-43.728 -49.527,-45.9 a 6.0001263,6.0001263 0 0 1 1.469,-11.91 c 31.592,3.893 46.976,27.608 58.894,52.656 a 6,6 0 0 1 -5.415,8.58 z"
         id="path4131" />
      <path
         style="fill:#8c8448"
         inkscape:connector-curvature="0"
         d="m 408.091,102.919 -6.7,13.51 -1.91,3.85 -23.96,2.56 c -9.26,-9.75 -17.69,-23.09 -18.23,-44.6 -0.21,-8.18 3.42,-16.86 -5.87,-28.15 l 1.17,-0.41 c 15.41,5.56 15.97,15.32 19.99,22.7 9.98,18.34 23.18,26.17 35.51,30.54 z"
         id="path4133" />
      <path
         style="fill:#706a37"
         inkscape:connector-curvature="0"
         d="m 112.6,378.329 c 7.69,-1.91 16.45,-3.24 20.74,-5.26 l 9.76,18.16 -18.05,29.29 c -8.71,-3.43 -27.23,-9.47 -29.01,-15.33 -2.2,-7.26 3.78,-21.47 3.78,-21.47 2.391,-2.39 7.321,-4.04 12.78,-5.39 z"
         id="path4135" />
    </g>
    <g
       transform="translate(-19.239253,-24)"
       id="g4034">
      <path
         style="fill:#35a872"
         inkscape:connector-curvature="0"
         d="m 344,88 c 0,0 0,-48 -32,-64 -32,16 -32,64 -32,64 v 72 h 64 z"
         id="path2" />
      <path
         style="fill:#248256"
         inkscape:connector-curvature="0"
         d="m 336,192 c 0,0 9.455,-80 104,-80 0,0 -47.273,40 -47.273,80 z"
         id="path4" />
      <path
         style="fill:#248256"
         inkscape:connector-curvature="0"
         d="m 288,192 c 0,0 -9.455,-80 -104,-80 0,0 47.273,40 47.273,80 z"
         id="path6" />
      <path
         style="fill:#319c6a"
         inkscape:connector-curvature="0"
         d="m 304,152 c 0,0 9.455,-80 104,-80 0,0 -47.273,40 -47.273,80 z"
         id="path8" />
      <path
         style="fill:#2e9163"
         inkscape:connector-curvature="0"
         d="m 320,152 c 0,0 -9.455,-80 -104,-80 0,0 47.273,40 47.273,80 z"
         id="path10" />
      <rect
         style="fill:#f7b030"
         height="304"
         rx="128"
         width="256"
         x="184"
         y="144"
         id="rect12" />
      <g
         id="g34"
         style="fill:#e09f2c">
        <path
           d="m 402.79,318.2 -45.26,43.89 -45.41,-44.08 45.26,-43.94 z"
           id="path14"
           inkscape:connector-curvature="0" />
        <path
           d="m 312.12,318.01 -45.4,44.08 -45.27,-43.9 45.4,-44.14 z"
           id="path16"
           inkscape:connector-curvature="0" />
        <path
           d="m 309.87,144.02 -43.14,41.93 -22.93,-22.28 a 127.231,127.231 0 0 1 66.07,-19.65 z"
           id="path18"
           inkscape:connector-curvature="0" />
        <path
           d="m 312.1,230.05 -45.25,44 -45.41,-44.08 45.29,-44.02 z"
           id="path20"
           inkscape:connector-curvature="0" />
        <path
           d="m 402.81,229.97 -45.43,44.1 -45.28,-44.02 45.39,-44.12 z"
           id="path22"
           inkscape:connector-curvature="0" />
        <path
           d="m 380.31,163.74 -22.82,22.19 -43.11,-41.91 a 127.258,127.258 0 0 1 65.93,19.72 z"
           id="path24"
           inkscape:connector-curvature="0" />
        <path
           d="m 221.44,229.97 -37.31,36.27 a 127.238,127.238 0 0 1 16.17,-56.79 z"
           id="path26"
           inkscape:connector-curvature="0" />
        <path
           d="m 439.86,265.98 -37.05,-36.01 20.97,-20.36 a 127.14,127.14 0 0 1 16.08,56.37 z"
           id="path28"
           inkscape:connector-curvature="0" />
        <path
           d="M 440,282.12 V 320 a 127.891,127.891 0 0 1 -3.73,30.76 L 402.79,318.2 Z"
           id="path30"
           inkscape:connector-curvature="0" />
        <path
           d="m 221.45,318.19 -33.68,32.75 A 128.261,128.261 0 0 1 184,320 v -38.12 z"
           id="path32"
           inkscape:connector-curvature="0" />
      </g>
      <path
         style="fill:#f7b030"
         inkscape:connector-curvature="0"
         d="m 266.72,362.09 -47.49,46.11 a 127.877,127.877 0 0 1 -31.46,-57.26 l 33.68,-32.75 z"
         id="path36" />
      <path
         style="fill:#e09f2c"
         inkscape:connector-curvature="0"
         d="m 404.89,408.07 a 128.015,128.015 0 0 1 -185.66,0.13 l 47.49,-46.11 45.4,44.03 45.41,-44.03 z"
         id="path38" />
      <path
         style="fill:#f7b030"
         inkscape:connector-curvature="0"
         d="m 349.25,442.12 a 1.831,1.831 0 0 0 -0.3,0.46 128.6,128.6 0 0 1 -73.95,-0.02 v -0.44 l 37.12,-36 z"
         id="path40" />
      <path
         style="fill:#35a872"
         inkscape:connector-curvature="0"
         d="M 488,328 C 488,405.32 405.62,488 304,488 202.38,488 120,405.32 120,328 Z"
         id="path42" />
      <path
         style="fill:#d13330"
         inkscape:connector-curvature="0"
         d="M 455.67,328 C 450.46,391.3 384.55,456 304,456 223.45,456 157.54,391.3 152.33,328 Z"
         id="path44" />
      <path
         style="fill:#5e3725"
         inkscape:connector-curvature="0"
         d="m 416,360 a 8,8 0 0 1 -16,0 c 0,-4.418 3.582,-16 8,-16 4.418,0 8,11.582 8,16 z"
         id="path46" />
      <path
         style="fill:#5e3725"
         inkscape:connector-curvature="0"
         d="m 376,400 a 8,8 0 0 1 -16,0 c 0,-4.418 3.582,-16 8,-16 4.418,0 8,11.582 8,16 z"
         id="path48" />
      <path
         style="fill:#5e3725"
         inkscape:connector-curvature="0"
         d="m 336,376 a 8,8 0 0 1 -16,0 c 0,-4.418 3.582,-16 8,-16 4.418,0 8,11.582 8,16 z"
         id="path50" />
      <path
         style="fill:#5e3725"
         inkscape:connector-curvature="0"
         d="m 288,376 a 8,8 0 0 1 -16,0 c 0,-4.418 3.582,-16 8,-16 4.418,0 8,11.582 8,16 z"
         id="path52" />
      <path
         style="fill:#5e3725"
         inkscape:connector-curvature="0"
         d="m 312,424 a 8,8 0 0 1 -16,0 c 0,-4.418 3.582,-16 8,-16 4.418,0 8,11.582 8,16 z"
         id="path54" />
      <path
         style="fill:#5e3725"
         inkscape:connector-curvature="0"
         d="m 232,400 a 8,8 0 0 0 16,0 c 0,-4.418 -3.582,-16 -8,-16 -4.418,0 -8,11.582 -8,16 z"
         id="path56" />
      <path
         style="fill:#eb423f"
         inkscape:connector-curvature="0"
         d="m 183.912,280 c -6.38,0 -23,4.354 -29.855,9.5 a 29.742,29.742 0 0 1 -36.114,0 c -6.854,-5.145 -23.475,-9.5 -29.855,-9.5 -41.723,0 -69.92,37.576 -63.06,83.661 l 5,33.576 a 170.458,170.458 0 0 0 19.586,57.937 C 63.937,480.84 91.4,493.251 117.619,485.91 L 131,481.122 a 14.779,14.779 0 0 1 10,0 l 13.381,4.788 c 26.222,7.341 53.682,-5.07 68.008,-30.736 a 170.458,170.458 0 0 0 19.586,-57.937 l 5,-33.576 C 253.832,317.576 225.635,280 183.912,280 Z"
         id="path58" />
      <path
         style="fill:#5e3725"
         inkscape:connector-curvature="0"
         d="m 136,336 a 8,8 0 0 1 -8,-8 c 0,-0.75 0.023,-18.623 2.036,-39.758 2.781,-29.2 7.931,-49.615 15.308,-60.68 a 8,8 0 0 1 13.312,8.875 C 146.646,254.453 144,308.642 144,328 a 8,8 0 0 1 -8,8 z"
         id="path60" />
      <path
         style="fill:#c7312e"
         inkscape:connector-curvature="0"
         d="m 165.657,314.343 a 8,8 0 0 0 -11.314,0 C 154.287,314.4 148.143,320 136,320 c -12.143,0 -18.184,-5.512 -18.435,-5.747 l 0.088,0.087 a 8,8 0 1 0 -11.306,11.321 C 107.42,326.733 117.244,336 136,336 c 18.772,0 28.6,-9.285 29.657,-10.343 a 8,8 0 0 0 0,-11.314 z"
         id="path62" />
    </g>
  </g>
</svg>
